<svg width="375" height="606" viewBox="0 0 375 606" fill="none" xmlns="http://www.w3.org/2000/svg">
<path fill-rule="evenodd" clip-rule="evenodd" d="M375.425 -198.665L375.419 517.409L375.549 562.007C375.567 568.116 370.629 573.083 364.52 573.101C358.411 573.119 353.444 568.181 353.426 562.072L353.239 497.791C353.238 497.487 353.249 497.186 353.272 496.888C352.796 491.203 348.023 486.745 342.218 486.762C336.54 486.779 331.874 491.071 331.258 496.581L331.365 533.201C331.383 539.31 326.445 544.277 320.336 544.295C314.227 544.313 309.26 539.375 309.242 533.266L309.065 472.532C308.416 467.026 303.725 462.762 298.048 462.779C291.939 462.797 287.001 467.763 287.019 473.872L287.109 504.747C287.158 505.165 287.184 505.591 287.185 506.022L287.373 570.302C287.391 576.411 282.453 581.378 276.344 581.396C270.235 581.414 265.268 576.476 265.25 570.367L265.063 506.086C265.061 505.656 265.085 505.231 265.131 504.814L265.1 494.03C265.082 487.921 260.115 482.983 254.006 483.001C248.202 483.018 243.454 487.503 243.011 493.191C243.036 493.489 243.049 493.79 243.05 494.095L243.238 558.375C243.256 564.484 238.318 569.451 232.209 569.469C226.1 569.487 221.133 564.549 221.115 558.44L220.997 517.86L220.706 517.861C219.444 513.123 215.117 509.638 209.984 509.653C204.851 509.668 200.544 513.178 199.31 517.923L199.019 517.924L199.206 581.813C199.224 587.921 194.286 592.888 188.177 592.906C182.068 592.924 177.101 587.986 177.084 581.877L176.896 517.597C176.895 517.165 176.918 516.739 176.965 516.321L176.912 498.306C176.894 492.197 171.928 487.26 165.819 487.277C160.141 487.294 155.474 491.586 154.859 497.096L155.027 554.614C155.044 560.723 150.107 565.69 143.998 565.708C137.889 565.725 132.922 560.788 132.904 554.679L132.759 505.199C132.111 499.692 127.42 495.427 121.742 495.444C115.633 495.462 110.695 500.428 110.713 506.537L110.727 511.292C110.776 511.709 110.802 512.134 110.803 512.565L110.991 576.846C111.009 582.955 106.071 587.922 99.9621 587.939C93.8532 587.957 88.8864 583.019 88.8686 576.91L88.6808 512.63C88.6796 512.199 88.7029 511.774 88.7497 511.356L88.6888 490.527C88.671 484.418 83.7042 479.48 77.5952 479.498C71.4863 479.516 66.5484 484.482 66.5663 490.591L66.6095 505.392C66.6587 505.81 66.6846 506.235 66.6859 506.666L66.8736 570.947C66.8915 577.056 61.9536 582.022 55.8446 582.04C49.7357 582.058 44.7689 577.12 44.7511 571.011L44.5633 506.731C44.562 506.3 44.5855 505.874 44.6322 505.456L44.589 490.655C44.5711 484.546 39.6044 479.609 33.4954 479.626C27.3864 479.644 22.4486 484.611 22.4664 490.72L22.4862 497.483C22.5354 497.901 22.5613 498.326 22.5626 498.757L22.7503 563.038C22.7682 569.147 17.8303 574.114 11.7213 574.132C5.61239 574.149 0.645612 569.212 0.627769 563.103L0.497502 518.504L-82.9046 518.747L-82.8986 -198.661L375.425 -198.665ZM209.931 479.111C216.02 479.093 220.97 484.015 220.988 490.104L220.99 490.559C221.007 496.648 216.086 501.598 209.997 501.616C203.908 501.634 198.957 496.712 198.939 490.623L198.938 490.168C198.92 484.079 203.842 479.129 209.931 479.111ZM331.456 564.53C331.438 558.441 326.488 553.519 320.399 553.537C314.31 553.555 309.388 558.505 309.406 564.594L309.423 570.274C309.44 576.363 314.391 581.284 320.48 581.267C326.569 581.249 331.491 576.298 331.473 570.209L331.456 564.53ZM155.138 592.774C155.12 586.685 150.17 581.764 144.081 581.782C137.992 581.799 133.07 586.75 133.088 592.839L133.09 593.696C133.108 599.785 138.059 604.706 144.148 604.688C150.237 604.671 155.158 599.72 155.14 593.631L155.138 592.774Z" fill="#0D3347"/>
</svg>
