<svg width="375" height="802" viewBox="0 0 375 802" fill="none" xmlns="http://www.w3.org/2000/svg">
<rect x="-0.5" width="426" height="750" fill="#FFC380"/>
<g filter="url(#filter0_d)">
<path d="M321.5 200L441.5 158L419.5 446H-114.5L-101.5 305.245L25.2715 297.764L263.355 230.441L321.5 200Z" fill="#E17029"/>
</g>
<g filter="url(#filter1_d)">
<path d="M-23.75 230L-103.554 233.013L-170.5 277.835L-176.5 472L425.5 451.561L317.189 360.698C253.346 325.285 136.833 243.98 107.039 233.013L66.6941 238.286C31.5081 238.239 -23.75 230 -23.75 230Z" fill="#A83E30"/>
<path d="M80.3581 290.164L106.951 232.616L137.533 246.317L163.239 262.829L359.5 382.278L-160.5 482L-152.328 382.278L-22.9104 332.742L36.9233 318.565L80.3581 290.164Z" fill="#B74435"/>
</g>
<g filter="url(#filter2_d)">
<path d="M173.961 438.719H506.58L342.997 237H323.003L275.292 286.513L173.961 438.719Z" fill="#752A37"/>
<path d="M241.212 284.679L160 364L-5.5 370.5L-83.228 430.466L-170.5 690L295.74 655.449L286.652 439.635L249.391 413.045L295.74 385.538L279.382 355.28L323.004 237.458L241.212 284.679Z" fill="#6A1E2B"/>
</g>
<g filter="url(#filter3_d)">
<path d="M401.832 372.286L467.326 355L521.326 801H297.326L199.5 773L220.326 581L297.326 405L378.441 372.286H401.832Z" fill="#321126"/>
</g>
<path d="M415.951 769.17C415.829 763.785 408.156 777.791 377.135 753.656C395.04 758.394 403.581 754.113 408.623 751.731C398.209 753.166 395.386 749.631 395.386 749.631C395.386 749.631 415.908 745.632 414.881 740.777C413.853 735.923 411.822 746.26 390.805 738.732C369.789 731.203 370.168 720.971 370.168 720.971C370.168 720.971 373.797 720.426 374.378 718.15C383.252 722.506 395.265 721.391 399.657 719.445C389.387 719.124 384.627 715.051 384.627 715.051C384.627 715.051 390.908 712.284 393.719 708.737C388.996 710.354 374.523 705.456 365.462 690.028C377.855 690.59 383.213 686.484 378.309 682.973C384.871 684.261 392.845 680.623 392.325 679.196C385.676 680.181 377.163 678.638 375.283 676.282C373.403 673.925 368.874 668.16 368.874 668.16C368.874 668.16 373.011 669.894 375.713 669.232C378.416 668.564 378.724 667.291 380.384 667.878C382.044 668.465 383.326 667.682 382.406 665.931C381.486 664.186 380.855 663.273 378.284 662.118C375.707 660.963 372.285 658.269 371.492 653.111C370.698 647.953 368.538 647.853 368.538 647.853C368.538 647.853 372.01 623.325 365.546 622.224C359.083 621.123 361.452 635.436 355.054 640.39C348.649 645.344 347.68 646.605 342.077 646.313C336.475 646.021 337.694 651.131 342.799 652.424C339.888 653.459 332.788 651.819 332.788 651.819C332.788 651.819 335.01 653.931 337.779 654.902C340.55 655.868 345.412 656.13 345.412 656.13C345.412 656.13 343.952 660.132 347.544 661.625C346.853 663.585 336.211 666.255 336.211 666.255C336.211 666.255 343.497 662.809 341.327 660.885C339.156 658.961 337.257 660.511 333.965 660.75C330.672 660.989 329.943 660.704 323.893 659.214C317.85 657.725 315.115 656.372 310.04 653.036C304.964 649.705 300.397 643.814 300.397 643.814L305.487 644.308L302.273 640.918C302.273 640.918 311.21 642.107 316.718 641.962C322.227 641.816 325.909 640.239 325.296 637.984C324.689 635.736 322.551 635.616 319.685 634.82C316.819 634.025 316.069 632.272 313.108 631.044C310.147 629.817 307.997 630.772 305.955 628.524C303.913 626.271 293.43 620.697 290.946 615.641C297.095 617.468 303.963 615.157 303.872 613.115C303.781 611.072 301.381 612.457 298.861 612.037C296.341 611.616 295.836 608.93 295.836 608.93C295.836 608.93 300.283 610.568 304.772 609.851C309.261 609.134 310.748 605.514 310.444 604.797C310.141 604.08 308.643 604.153 305.631 604.142C302.613 604.131 299.041 602.646 298.843 600.265C298.645 597.884 296.033 594.612 293.247 593.556C296.224 593.078 296.581 591.029 296.581 591.029C296.581 591.029 298.241 593.573 301.845 593.227C305.449 592.881 304.942 589.013 303.066 587.387C301.19 585.761 299.314 584.136 298.389 579.658C297.463 575.18 295.332 573.209 295.704 570.224C296.075 567.24 294.431 555.045 291.166 555.013C287.907 554.982 288.384 559.906 288.133 561.106C287.882 562.306 285.3 564.774 284.625 568.625C283.949 572.476 275.443 581.204 273.441 583.805C271.438 586.406 261.681 584.518 260.397 590.107C259.105 595.701 268.596 590.965 268.305 593.305C268.014 595.644 263.058 597.336 257.368 597.75C251.677 598.164 254.307 599.28 249.775 599.954C245.244 600.629 242.85 603.927 242.565 605.453C238.281 604.52 236.159 602.912 236.159 602.912C236.159 602.912 236.397 604.153 237.276 605.087C233.865 605.081 233.324 604.26 233.324 604.26C233.324 604.26 234.125 607.345 240.412 608.119C246.692 608.898 248.462 610.999 253.507 610.982C249.415 612.101 246.875 614.611 243.857 614.6C240.839 614.589 233.655 614.709 229.751 617.472C225.846 620.235 224.851 618.277 224.619 620.577C224.38 622.876 226.335 621.904 227.79 622.513C229.243 623.127 232.397 624.817 236.925 625.369C241.454 625.915 243.309 624.936 243.309 624.936C243.309 624.936 242.735 628.349 245.185 629.332C243.618 631.97 241.87 632.145 239.803 632.053C237.736 631.961 235.908 632.782 235.816 634.279C235.732 635.778 237.235 636.803 240.705 637.098C244.182 637.393 250.716 636.889 250.716 636.889C250.716 636.889 240.787 646.555 224.516 649.143L222.336 648.166C222.336 648.166 224.67 646.714 224.807 645.014C232.135 645.146 237.132 643.128 236.658 640.952C236.184 638.777 230.271 641.631 222.512 633.64C214.754 625.649 213.788 622.695 213.048 620.865C212.315 619.029 210.259 618.247 210.259 618.247C210.259 618.247 214.713 618.196 218.179 617.76C221.645 617.324 222.572 615.262 221.478 613.887C220.389 612.512 219.417 612.552 218.097 612.44C216.777 612.327 215.237 610.669 213.564 610.404C211.891 610.139 211.381 609.181 211.565 607.976C211.748 606.771 210.703 605.979 210.291 605.972C209.885 605.966 211.908 603.695 210.38 602.59C208.845 601.484 208.753 601.353 208.854 600.871C208.948 600.388 211.391 599.252 211.056 597.757C210.721 596.262 211.818 596.417 211.671 594.877C211.531 593.337 211.26 592.796 211.603 590.963C211.94 589.129 210.825 588.298 211.098 586.704C211.37 585.111 212.725 578.686 210.842 578.314C208.959 577.942 207.947 580.147 207.547 582.433C207.154 584.719 204.086 589.409 202.774 590.976C201.469 592.544 200.827 594.385 200.976 595.312C201.118 596.238 199.238 597.361 199.275 598.529C199.313 599.692 200.175 599.95 200.025 601.158C199.874 602.366 196.888 604.008 194.009 604.187C191.129 604.372 189.815 603.34 188.552 604.242C187.289 605.144 187.766 607.292 189.968 608.366C192.17 609.439 193.484 610.527 195.349 610.44C189.616 613.588 183.929 614.571 181.378 613.317C178.826 612.064 179.335 613.356 177.357 612.825C175.386 612.29 171.883 611.228 171.883 611.228C171.883 611.228 176.158 616.203 180.158 617.462C177.154 618.64 170.051 618.221 170.051 618.221C170.051 618.221 175.006 619.801 176.319 620.889C177.633 621.976 189.673 622.051 189.673 622.051C189.673 622.051 187.902 623.774 184.23 625.051C180.557 626.328 177.263 627.392 174.654 628.068C172.045 628.744 168.09 629.138 164.352 629.797C160.608 630.454 159.804 628.596 158.551 628.328C157.298 628.06 156.719 628.741 155.578 627.953C154.438 627.164 149.911 626.981 147.796 625.702C148.873 630.154 156.98 636.541 163.797 638.18C170.613 639.818 174.861 639.081 174.861 639.081C174.861 639.081 177.627 641.88 181.123 642.016C171.487 647.754 166.506 649.589 158.27 649.625C161.368 646.164 162.786 644.941 162.486 644.363C162.185 643.786 148.681 648.019 143.241 647.618C137.8 647.217 131.454 646.371 125.12 643.636C118.785 640.901 107.991 638.211 105.796 634.417C118.179 639.194 125.719 637.024 131.005 637.473C136.29 637.922 143.088 635.138 143.088 635.138C143.088 635.138 136.875 633.818 131.929 633.638C129.11 628.269 121.256 626.436 113.45 622.416C129.321 629.569 137.993 626.029 137.993 626.029C137.993 626.029 130.852 621.999 129.823 617.758C138.02 618.638 150.004 611.165 150.004 611.165C150.004 611.165 121.819 605.207 107.957 592.627C120.376 594.173 136.28 591.493 137.108 584.839C137.935 578.191 136.638 583.824 124.199 581.301C111.752 578.777 107.327 576.204 107.327 576.204C107.327 576.204 118.952 576.946 115.694 570.927C129.442 574.905 137.71 574.018 146.209 568.875C130.025 568.966 121.705 564.351 121.705 564.351C121.705 564.351 131.259 565.04 135.781 560.902C129.429 559.509 125.376 558.674 116.355 557.295C107.327 555.914 106.999 553.812 106.999 553.812C106.999 553.812 116.965 552.011 116.867 548.824C116.77 545.638 110.256 547.928 101.88 538.914C109.514 543.555 114.002 541.656 114.002 541.656C114.002 541.656 109.349 536.945 107.064 533.818C104.786 530.692 102.226 528.194 101.699 524.486C101.172 520.778 103.44 519.259 101.714 517.239C100.034 515.239 102.652 510.901 99.9122 510.668C97.1724 510.435 98.6732 512.682 96.4803 515.997C94.2873 519.312 92.6095 520.881 92.2589 524.515C91.9083 528.148 79.5042 538.011 74.7132 546.319C81.0869 545.149 85.3162 541.354 85.3162 541.354C85.3162 541.354 80.9566 548.154 79.1737 550.567C77.3909 552.98 74.6192 553.765 72.8045 556.053C70.9899 558.341 69.6468 557.982 66.8331 558.724C64.02 559.461 63.459 560.433 63.2281 561.473C62.9971 562.513 63.6443 564.112 67.2362 564.624C61.3133 566.524 52.0042 569.033 48.8462 570.148C45.6883 571.262 47.499 573.412 50.1164 574.248C52.7338 575.084 56.7784 576.364 61.8362 575.812C66.9001 575.267 69.7 574.2 69.7 574.2C69.7 574.2 67.8335 575.709 66.6359 577.77C65.4391 579.826 39.5574 587.563 29.4608 587.642C37.2253 591.234 63.9172 589.716 71.3189 586.27C60.2086 598.846 50.829 599.148 43.2008 600.825C35.5734 602.496 30.7331 600.864 28.9079 602.421C27.0827 603.977 25.6327 612.039 48.3733 614.094C44.4554 618.16 37.5738 616.232 35.3639 618.486C33.154 620.74 34.1397 624.733 40.5218 625.888C46.9039 627.044 43.6389 629.454 43.6389 629.454C41.2281 631.909 38.7247 634.835 36.9283 635.29C35.1319 635.745 31.398 632.947 29.021 632.193C26.6372 631.438 21.4063 630.498 19.0602 626.774C24.8744 627.38 30.3517 625.253 29.6779 623.16C29.0048 621.062 22.6408 620.578 19.3891 617.658C16.1374 614.739 12.8241 612.913 11.2692 609.252C15.7619 610.793 21.4748 607.861 20.1987 605.768C18.9225 603.674 13.9833 604.632 8.69178 599.337C15.8305 601.103 20.8072 597.668 20.1468 596.011C19.4865 594.355 9.51685 594.339 5.46281 586.607C8.94695 587.984 14.6396 587.771 14.8177 586.721C14.9957 585.671 10.3031 584.648 7.59124 579.567C4.87939 574.486 6.96692 571.691 4.71527 569.331C4.26172 567.971 5.99952 552.212 5.15737 552.179C4.31522 552.147 1.55698 559.623 1.43728 562C1.31759 564.376 1.76538 566.544 0.28579 568.369C-1.18641 570.19 -1.39445 571.862 -1.54924 573.432C-1.69666 574.998 -3.83487 575.697 -4.33478 576.831C-4.83469 577.965 -9.25496 578.398 -9.27155 579.238C-9.28883 580.084 -6.43802 580.839 -5.60803 581.35C-4.77802 581.861 -12.0853 584.658 -16.4886 584.574C-20.8926 584.496 -19.7531 585.73 -21.1108 585.542C-22.4684 585.354 -22.7507 584.739 -23.0081 585.013C-23.2655 585.286 -23.6238 587.458 -20.9641 587.573C-18.3044 587.687 -18.4301 589.405 -16.3293 589.768C-14.2351 590.129 -11.9971 590.097 -11.9971 590.097C-11.9971 590.097 -13.9988 592.201 -15.6786 592.427C-17.3584 592.652 -20.102 592.123 -20.6801 593.178C-21.2581 594.233 -19.3806 596.009 -16.7435 596.306C-14.1065 596.603 -11.81 596.101 -11.81 596.101C-11.81 596.101 -16.8237 599.126 -20.3453 599.083C-23.8603 599.041 -29.0072 598.459 -30.0509 599.285C-31.0886 600.116 -30.548 601.484 -26.5237 602.818C-22.4993 604.153 -22.5144 605.361 -22.5144 605.361C-22.5144 605.361 -26.8823 605.319 -27.2762 605.982C-27.6702 606.646 -26.9028 608.367 -23.0733 608.765C-19.2439 609.163 -17.4001 608.327 -17.4001 608.327C-17.4001 608.327 -22.3834 610.402 -25.3762 611.876C-28.3691 613.35 -34.1137 612.566 -35.8325 613.485C-37.5512 614.404 -40.603 613.849 -42.077 613.836C-43.5444 613.822 -45.9582 615.268 -43.1927 617.415C-40.4271 619.562 -33.3424 620.348 -33.3424 620.348C-33.3424 620.348 -37.6802 623.654 -33.0782 625.406C-34.2636 628.132 -44.3557 630.731 -45.6109 630.809C-46.8661 630.886 -49.4873 630.407 -50.9913 631.015C-52.4954 631.623 -53.4104 633.971 -49.3522 635.414C-45.2947 636.863 -42.8654 640.297 -36.8987 640.33C-39.7843 642.031 -49.6884 644.535 -49.6884 644.535C-49.6884 644.535 -58.5549 639.081 -62.3089 633.399C-66.0629 627.716 -69.7773 622.477 -72.0896 620.223C-62.2992 623.257 -54.7877 623.823 -49.859 623.656C-44.9303 623.49 -41.8262 622.917 -41.737 622.2C-41.6484 621.488 -51.7214 619.311 -53.1492 618.599C-49.0938 617.181 -49.434 614.911 -49.434 614.911C-49.434 614.911 -57.0576 615.953 -64.0018 609.414C-70.946 602.874 -79.044 593.204 -81.1615 584.978C-72.2998 594.931 -62.1113 600.151 -57.4184 602.206C-52.7249 604.255 -42.4086 606.436 -35.4603 604.239C-47.0304 599.894 -54.0495 593.956 -54.0495 593.956C-54.0495 593.956 -42.1126 591.056 -43.261 584.128C-51.1989 583.398 -60.2856 580.095 -65.3567 575.694C-70.4278 571.293 -71.2524 571.446 -71.2524 571.446C-71.2524 571.446 -60.8211 567.209 -62.9495 561.737C-63.4166 560.649 -69.4676 561.239 -73.5924 558.535C-77.7171 555.832 -78.573 555.91 -80.2243 553.784C-76.3895 554.846 -69.3081 553.864 -69.8439 550.663C-70.3791 547.456 -75.8542 546.629 -78.0883 543.094C-76.9073 541.872 -76.7497 540.932 -77.3134 540.076C-75.0501 539.46 -73.6209 536.57 -73.7542 534.758C-73.8875 532.946 -76.0469 528.43 -78.4449 525.506C-80.843 522.581 -79.8322 507.278 -81.1206 507.241C-82.4089 507.204 -81.5771 510.91 -83.1881 512.758C-84.7991 514.606 -85.5443 517.331 -86.118 519.819C-86.6984 522.306 -87.975 525.058 -89.8957 526.512C-91.8164 527.966 -93.9307 529.18 -94.3416 530.361C-94.7586 531.535 -98.9954 531.582 -99.214 532.957C-99.4325 534.333 -98.6271 536.13 -97.7933 536.937C-96.9595 537.743 -94.8 537.96 -94.8 537.96C-94.8 537.96 -97.7951 540.867 -102.448 542.083C-107.102 543.305 -109.226 544.925 -109.54 546.036C-109.855 547.147 -108.72 548.748 -106.169 549.406C-103.617 550.063 -103.545 551.279 -101.581 551.596C-99.6159 551.908 -99.3431 550.097 -97.8895 550.221C-96.4358 550.344 -95.3845 550.545 -95.3937 550.946C-95.3963 551.347 -99.992 552.428 -100.781 554.09C-101.57 555.751 -105.19 555.845 -107.513 556.239C-109.836 556.627 -113.004 555.917 -113.743 556.847C-114.481 557.777 -119.71 559.646 -119.998 560.871C-120.285 562.095 -115.29 562.481 -114.22 563.564C-113.15 564.647 -106.123 566.934 -104.888 567.078C-103.661 567.221 -103.696 567.508 -103.719 567.69C-103.742 567.872 -107.398 566.792 -109.515 568.407C-111.633 570.028 -111.562 571.579 -115.202 570.751C-118.843 569.929 -120.025 572.951 -125.709 573.092C-131.393 573.234 -153.835 569.543 -159.317 562.029C-156.967 567.353 -153.12 570.819 -152.387 572.978C-151.654 575.136 -147.413 574.945 -144.863 577.035C-142.314 579.125 -137.852 583.58 -135.533 583.225C-137.297 584.508 -148.306 585.334 -153.514 582.578C-151.315 585.848 -144.551 587.415 -142.831 588.665C-141.111 589.915 -134.36 591.532 -130.876 590.947C-127.391 590.362 -120.766 590.869 -120.766 590.869C-120.766 590.869 -120.091 591.919 -118.268 591.745C-119.168 593.045 -125.254 594.675 -128.97 597.119C-132.685 599.558 -154.396 606.311 -160.812 605.158C-159.275 607.876 -152.528 611.153 -147.149 611.995C-141.771 612.837 -132.679 612.895 -132.679 612.895C-132.679 612.895 -132.899 616.294 -140.089 617.061C-134.936 620.253 -122.427 620.268 -122.427 620.268C-122.427 620.268 -126.642 620.79 -132.478 625.257C-138.32 629.717 -150.802 629.487 -153.947 631.64C-157.092 633.798 -166.167 635.782 -169.349 635.511C-172.524 635.241 -181.676 635.674 -183.537 634.473C-185.391 633.267 -189.018 635 -184.511 640.122C-179.997 645.245 -177.693 646.098 -172.729 646.52C-167.766 646.942 -156.176 647.375 -156.176 647.375C-156.176 647.375 -172.955 653.716 -173.56 654.824C-174.165 655.933 -172.95 659.063 -166.418 659.234C-159.886 659.404 -145.754 657.683 -140.731 654.419C-141.586 657.541 -139.243 658.565 -137.461 658.772C-135.68 658.979 -130.264 657.951 -124.316 654.213C-127.578 657.85 -140.737 668.614 -152.367 672.476C-163.998 676.339 -176.311 676.391 -177.467 678.501C-178.623 680.605 -178.588 683.914 -170.342 685.055C-162.097 686.196 -156.234 687.062 -156.234 687.062C-156.234 687.062 -171.553 698.323 -180.987 701.781C-190.428 705.239 -200.763 705.169 -203.864 704.248C-206.958 703.321 -208.604 706.488 -204.945 708.639C-201.286 710.784 -198.589 711.308 -197.441 712.142C-196.299 712.975 -190.458 712.663 -186.871 713.921C-183.284 715.179 -170.362 713.121 -170.362 713.121C-170.362 713.121 -171.812 714.76 -170.231 716.366C-178.108 719.444 -179.59 724.169 -183.083 725.043C-186.584 725.922 -201.543 728.353 -205.225 731.882L391.335 782.568C391.343 782.557 416.073 774.555 415.951 769.17ZM-72.0521 667.575C-74.6674 664.927 -74.8574 662.156 -74.8574 662.156L-66.3431 666.85C-66.3424 666.844 -69.4516 667.132 -72.0521 667.575ZM-58.0028 658.961L-50.6415 660.027L-54.3173 662.692L-58.0028 658.961ZM-45.7378 690.524C-45.7378 690.524 -51.335 688.175 -54.8648 683.247C-47.8682 686.155 -36.8605 685.881 -36.8605 685.881L-45.7378 690.524ZM130.93 666.415L129.776 662.794L134.196 659.534L138.818 664.337L130.93 666.415ZM228.115 678.972L223.835 674.638L231.78 675.313L228.115 678.972ZM236.459 668.88L229.805 665.338L241.455 666.327L236.459 668.88ZM239.912 658.374L231.155 654.547C231.155 654.547 245.216 655.518 249.674 654.135C247.145 656.123 239.912 658.374 239.912 658.374ZM331.255 679.098C329.414 679.527 319.38 679.923 316.726 683.3C314.078 686.677 325.841 691.055 325.841 691.055C323.503 693.354 321.911 697.551 321.911 697.551L310.226 688.256L312.959 688.488L302.269 678.325L308.911 680.874L301.08 671.394C301.08 671.394 311.957 672.173 314.897 674.329C317.837 676.492 316.114 668.852 314.006 667.128C320.453 669.07 329.186 668.418 329.186 668.418C329.186 668.418 323.73 671.405 320.301 673.172C316.873 674.938 317.888 676.786 326.029 676.597C334.169 676.407 335.637 676.091 335.637 676.091C335.637 676.091 333.095 678.669 331.255 679.098Z" fill="#321126"/>
<defs>
<filter id="filter0_d" x="-118.5" y="151" width="564" height="296" filterUnits="userSpaceOnUse" color-interpolation-filters="sRGB">
<feFlood flood-opacity="0" result="BackgroundImageFix"/>
<feColorMatrix in="SourceAlpha" type="matrix" values="0 0 0 0 0 0 0 0 0 0 0 0 0 0 0 0 0 0 127 0"/>
<feOffset dy="-3"/>
<feGaussianBlur stdDeviation="2"/>
<feColorMatrix type="matrix" values="0 0 0 0 0 0 0 0 0 0 0 0 0 0 0 0 0 0 0.3 0"/>
<feBlend mode="normal" in2="BackgroundImageFix" result="effect1_dropShadow"/>
<feBlend mode="normal" in="SourceGraphic" in2="effect1_dropShadow" result="shape"/>
</filter>
<filter id="filter1_d" x="-180.5" y="223" width="610" height="260" filterUnits="userSpaceOnUse" color-interpolation-filters="sRGB">
<feFlood flood-opacity="0" result="BackgroundImageFix"/>
<feColorMatrix in="SourceAlpha" type="matrix" values="0 0 0 0 0 0 0 0 0 0 0 0 0 0 0 0 0 0 127 0"/>
<feOffset dy="-3"/>
<feGaussianBlur stdDeviation="2"/>
<feColorMatrix type="matrix" values="0 0 0 0 0 0 0 0 0 0 0 0 0 0 0 0 0 0 0.3 0"/>
<feBlend mode="normal" in2="BackgroundImageFix" result="effect1_dropShadow"/>
<feBlend mode="normal" in="SourceGraphic" in2="effect1_dropShadow" result="shape"/>
</filter>
<filter id="filter2_d" x="-174.5" y="230" width="685.08" height="461" filterUnits="userSpaceOnUse" color-interpolation-filters="sRGB">
<feFlood flood-opacity="0" result="BackgroundImageFix"/>
<feColorMatrix in="SourceAlpha" type="matrix" values="0 0 0 0 0 0 0 0 0 0 0 0 0 0 0 0 0 0 127 0"/>
<feOffset dy="-3"/>
<feGaussianBlur stdDeviation="2"/>
<feColorMatrix type="matrix" values="0 0 0 0 0 0 0 0 0 0 0 0 0 0 0 0 0 0 0.3 0"/>
<feBlend mode="normal" in2="BackgroundImageFix" result="effect1_dropShadow"/>
<feBlend mode="normal" in="SourceGraphic" in2="effect1_dropShadow" result="shape"/>
</filter>
<filter id="filter3_d" x="195.5" y="348" width="329.826" height="454" filterUnits="userSpaceOnUse" color-interpolation-filters="sRGB">
<feFlood flood-opacity="0" result="BackgroundImageFix"/>
<feColorMatrix in="SourceAlpha" type="matrix" values="0 0 0 0 0 0 0 0 0 0 0 0 0 0 0 0 0 0 127 0"/>
<feOffset dy="-3"/>
<feGaussianBlur stdDeviation="2"/>
<feColorMatrix type="matrix" values="0 0 0 0 0 0 0 0 0 0 0 0 0 0 0 0 0 0 0.3 0"/>
<feBlend mode="normal" in2="BackgroundImageFix" result="effect1_dropShadow"/>
<feBlend mode="normal" in="SourceGraphic" in2="effect1_dropShadow" result="shape"/>
</filter>
</defs>
</svg>
