<svg width="8000" height="7192" viewBox="0 0 8000 7192" fill="none" xmlns="http://www.w3.org/2000/svg">
<rect x="4" y="6121" width="8006.6" height="1070.86" fill="#C3ECFF"/>
<rect x="-2" y="1045" width="8000" height="3970.76" fill="#04283B"/>
<g filter="url(#filter0_d)">
<path d="M616.61 2121.51C529.198 2083.55 431.336 2089.87 393.331 2097.78C305.92 2196.49 505.762 2255.96 616.61 2273.36V2121.51Z" fill="#00608D"/>
<path d="M341.074 4816.93L407.582 4081.38H844.638V4769.47L687.868 4793.2L640.362 4152.57L516.846 4816.93H341.074Z" fill="#00608D"/>
<path d="M341.074 4816.93L407.582 4081.38H844.638V4769.47L687.868 4793.2L640.362 4152.57L516.846 4816.93H341.074Z" fill="url(#paint0_linear)"/>
<path d="M250.812 3293.64C342.024 3179.74 469.34 3160.76 521.597 3165.51C562.769 3149.69 668.866 3127.54 763.878 3165.51C882.643 3212.96 958.653 3445.49 977.655 3621.07C992.857 3761.54 911.147 3818.8 868.391 3829.87L901.645 4095.62L711.621 4195.27L645.113 4095.62L597.606 4195.27L312.57 4128.84L345.824 3853.6L369.577 3516.67L217.558 3663.78L345.824 3753.95L312.57 3882.07C225.475 3820.38 70.289 3745.4 13.2817 3711.24C-57.9774 3668.53 136.798 3436 250.812 3293.64Z" fill="#00608D"/>
<path d="M250.812 3293.64C342.024 3179.74 469.34 3160.76 521.597 3165.51C562.769 3149.69 668.866 3127.54 763.878 3165.51C882.643 3212.96 958.653 3445.49 977.655 3621.07C992.857 3761.54 911.147 3818.8 868.391 3829.87L901.645 4095.62L711.621 4195.27L645.113 4095.62L597.606 4195.27L312.57 4128.84L345.824 3853.6L369.577 3516.67L217.558 3663.78L345.824 3753.95L312.57 3882.07C225.475 3820.38 70.289 3745.4 13.2817 3711.24C-57.9774 3668.53 136.798 3436 250.812 3293.64Z" fill="url(#paint1_linear)"/>
<path d="M996.658 2591.31H317.321V2249.64C298.319 2147.14 356.909 2108.86 388.58 2102.53C352.159 2121.51 355.326 2184.15 659.365 2282.86C905.025 2362.61 983.209 2358.92 996.658 2340.38V2325.57C999.395 2330.73 999.854 2335.98 996.658 2340.38V2591.31Z" fill="#00608D"/>
<path d="M996.658 2591.31H317.321V2249.64C298.319 2147.14 356.909 2108.86 388.58 2102.53C352.159 2121.51 355.326 2184.15 659.365 2282.86C905.025 2362.61 983.209 2358.92 996.658 2340.38V2325.57C999.395 2330.73 999.854 2335.98 996.658 2340.38V2591.31Z" fill="url(#paint2_linear)"/>
<path d="M316.671 2809.6L349.926 2591.31H924.749L958.003 2781.13C984.924 2728.93 1038.76 2655.85 1038.76 2781.13C1038.76 2906.41 984.924 2915.58 958.003 2904.51C948.502 2975.69 877.243 3129.44 668.216 3175C459.19 3220.56 330.923 3013.66 292.918 2904.51C237.495 2853.89 146.6 2746.01 226.41 2719.44C306.22 2692.86 319.838 2768.47 316.671 2809.6Z" fill="#00608D"/>
<path d="M316.671 2809.6L349.926 2591.31H924.749L958.003 2781.13C984.924 2728.93 1038.76 2655.85 1038.76 2781.13C1038.76 2906.41 984.924 2915.58 958.003 2904.51C948.502 2975.69 877.243 3129.44 668.216 3175C459.19 3220.56 330.923 3013.66 292.918 2904.51C237.495 2853.89 146.6 2746.01 226.41 2719.44C306.22 2692.86 319.838 2768.47 316.671 2809.6Z" fill="url(#paint3_linear)"/>
<path d="M330.924 2866.55L397.433 2591.31H307.171L250.164 2738.42L330.924 2866.55Z" fill="#00608D"/>
<path d="M948.503 2809.6L858.242 2591.31H986.508L1019.76 2738.42L948.503 2809.6Z" fill="#00608D"/>
<path d="M455.088 3156.02L331.573 3203.47C711.621 3461.63 721.122 3978.57 678.367 4204.77H820.885C919.698 3540.4 618.193 3228.78 455.088 3156.02Z" fill="#00608D"/>
</g>
<g filter="url(#filter1_d)">
<path d="M1769.28 4861.24L1794.74 4418.69H1356.8L1331.34 4820.55C1355.78 4893.8 1633.48 4878.2 1769.28 4861.24Z" fill="#00608D"/>
<path d="M1769.28 4861.24L1794.74 4418.69H1356.8L1331.34 4820.55C1355.78 4893.8 1633.48 4878.2 1769.28 4861.24Z" fill="url(#paint4_linear)"/>
<path d="M1692.89 3284.31V3228.35L1463.74 3202.92V3284.31C1141.9 3194.78 1139.53 3762.47 1178.57 4057.51H1275.32V4484.81C1446.42 4582.48 1740.42 4525.51 1866.03 4484.81L1815.11 3925.25L1866.03 4088.03L2049.35 4057.51C2028.98 4054.12 1985.19 3963.91 1972.97 3630.22C1960.75 3296.52 1781.16 3260.57 1692.89 3284.31Z" fill="#00608D"/>
<path d="M1692.89 3284.31V3228.35L1463.74 3202.92V3284.31C1141.9 3194.78 1139.53 3762.47 1178.57 4057.51H1275.32V4484.81C1446.42 4582.48 1740.42 4525.51 1866.03 4484.81L1815.11 3925.25L1866.03 4088.03L2049.35 4057.51C2028.98 4054.12 1985.19 3963.91 1972.97 3630.22C1960.75 3296.52 1781.16 3260.57 1692.89 3284.31Z" fill="url(#paint5_linear)"/>
<path d="M2125.74 3141.88V2628.1L1962.78 2914.88C1942.41 2897.92 1739.74 3149 1804.92 3177.49C1870.1 3205.97 2045.96 3165.62 2125.74 3141.88Z" fill="#00608D"/>
<path d="M1972.97 2984.18C2017.78 2756.29 1777.77 2580.62 1652.16 2521.28C1495.99 2587.41 1200.98 2772.57 1270.23 2984.18C1356.8 3248.7 1575.77 3233.44 1652.16 3238.53C1713.26 3242.6 1860.94 3131.7 1927.14 3075.75L1972.97 2984.18Z" fill="#00608D"/>
<path d="M1972.97 2984.18C2017.78 2756.29 1777.77 2580.62 1652.16 2521.28C1495.99 2587.41 1200.98 2772.57 1270.23 2984.18C1356.8 3248.7 1575.77 3233.44 1652.16 3238.53C1713.26 3242.6 1860.94 3131.7 1927.14 3075.75L1972.97 2984.18Z" fill="url(#paint6_linear)"/>
<path d="M1117.46 2628.1C1321.15 2461.25 1562.19 2497.54 1657.24 2536.53C1331.34 2707.45 1260.04 2936.7 1265.14 3029.96C1114.41 2883.46 1103.88 2701.01 1117.46 2628.1Z" fill="#00608D"/>
<path d="M1117.46 2628.1C1321.15 2461.25 1562.19 2497.54 1657.24 2536.53C1331.34 2707.45 1260.04 2936.7 1265.14 3029.96C1114.41 2883.46 1103.88 2701.01 1117.46 2628.1Z" fill="url(#paint7_linear)"/>
<path d="M2039.17 2816.32C1973.99 2474.48 1770.97 2355.11 1677.61 2338.15C1781.16 2309.32 2021.85 2251.67 2156.29 2251.67C2290.73 2251.67 2134.22 2628.1 2039.17 2816.32Z" fill="#00608D"/>
<path d="M2039.17 2816.32C1973.99 2474.48 1770.97 2355.11 1677.61 2338.15C1781.16 2309.32 2021.85 2251.67 2156.29 2251.67C2290.73 2251.67 2134.22 2628.1 2039.17 2816.32Z" fill="url(#paint8_linear)"/>
<path d="M1102.18 2251.67C1151.07 2219.12 1378.87 2295.76 1489.2 2338.15C1256.99 2407.33 1136.13 2492.45 1102.18 2526.36C1081.82 2448.37 1053.3 2284.23 1102.18 2251.67Z" fill="#00608D"/>
<path d="M1102.18 2251.67C1151.07 2219.12 1378.87 2295.76 1489.2 2338.15C1256.99 2407.33 1136.13 2492.45 1102.18 2526.36C1081.82 2448.37 1053.3 2284.23 1102.18 2251.67Z" fill="url(#paint9_linear)"/>
<path d="M2044.26 2801.06C2018.8 2623.02 1884.36 2260.83 1550.31 2317.8C1216.25 2374.78 1078.42 2511.1 1076.72 2546.71L1127.64 2633.19C1212.52 2565.36 1438.27 2453.11 1662.34 2546.71C1942.41 2663.71 1932.23 2974.01 1916.95 3040.14C1910.3 3068.92 1900.34 3101.01 1892.63 3121.84C1888.36 3129.77 1884.55 3136.53 1881.3 3141.88C1881.3 3148.84 1886.18 3139.29 1892.63 3121.84C1933.09 3046.75 2014.78 2867.31 2044.26 2801.06Z" fill="#00608D"/>
<path d="M2044.26 2801.06C2018.8 2623.02 1884.36 2260.83 1550.31 2317.8C1216.25 2374.78 1078.42 2511.1 1076.72 2546.71L1127.64 2633.19C1212.52 2565.36 1438.27 2453.11 1662.34 2546.71C1942.41 2663.71 1932.23 2974.01 1916.95 3040.14C1910.3 3068.92 1900.34 3101.01 1892.63 3121.84C1888.36 3129.77 1884.55 3136.53 1881.3 3141.88C1881.3 3148.84 1886.18 3139.29 1892.63 3121.84C1933.09 3046.75 2014.78 2867.31 2044.26 2801.06Z" fill="url(#paint10_linear)"/>
<path d="M1754 3238.53L1967.87 3335.18C1784.55 3725.85 1473.92 3993.08 1341.52 4077.87V3828.61L1754 3238.53Z" fill="#00608D"/>
</g>
<g filter="url(#filter2_d)">
<path d="M6159.02 4055.02C6059.04 4053.64 6073.78 3705.04 6093.65 3530.91H6159.02V4055.02Z" fill="#00608D"/>
<path d="M6159.02 4055.02C6059.04 4053.64 6073.78 3705.04 6093.65 3530.91H6159.02V4055.02Z" fill="url(#paint11_linear)"/>
<path d="M6895.4 4055.02L6774.27 3492.98L6639.68 3530.91L6764.66 4091.22L6895.4 4055.02Z" fill="#00608D"/>
<path d="M6895.4 4055.02L6774.27 3492.98L6639.68 3530.91L6764.66 4091.22L6895.4 4055.02Z" fill="url(#paint12_linear)"/>
<path d="M6222.47 4749.8L6182.09 4155.01L6676.22 4130.87L6689.67 4741.18C6608.15 4778.42 6344.24 4762.44 6222.47 4749.8Z" fill="#00608D"/>
<path d="M6222.47 4749.8L6182.09 4155.01L6676.22 4130.87L6689.67 4741.18C6608.15 4778.42 6344.24 4762.44 6222.47 4749.8Z" fill="url(#paint13_linear)"/>
<path d="M6135.95 4167.08V3539.53H6726.2L6735.82 4151.56C6545.09 4270.17 6256.43 4211.33 6135.95 4167.08Z" fill="#00608D"/>
<path d="M6135.95 4167.08V3539.53H6726.2L6735.82 4151.56C6545.09 4270.17 6256.43 4211.33 6135.95 4167.08Z" fill="url(#paint14_linear)"/>
<path d="M6082.11 3561.94C6000.59 3505.4 6212.21 3375.17 6328.21 3317.13C6337.83 3307.94 6390.89 3295.06 6526.25 3317.13C6661.6 3339.2 6805.67 3445.86 6860.79 3496.43L6801.19 3520.57C6819.64 3574.36 6742.23 3570.57 6701.21 3561.94C6702.75 3622.63 6635.2 3607.92 6601.23 3592.98C6584.31 3642.63 6519.84 3620.56 6489.72 3603.32C6455.88 3652.97 6398.71 3629.76 6374.36 3611.94C6314.37 3651.94 6269.89 3622.86 6255.15 3603.32C6179.78 3625.39 6158.38 3584.93 6157.09 3561.94C6137.1 3581.25 6098.77 3569.99 6082.11 3561.94Z" fill="#00608D"/>
<path d="M6082.11 3561.94C6000.59 3505.4 6212.21 3375.17 6328.21 3317.13C6337.83 3307.94 6390.89 3295.06 6526.25 3317.13C6661.6 3339.2 6805.67 3445.86 6860.79 3496.43L6801.19 3520.57C6819.64 3574.36 6742.23 3570.57 6701.21 3561.94C6702.75 3622.63 6635.2 3607.92 6601.23 3592.98C6584.31 3642.63 6519.84 3620.56 6489.72 3603.32C6455.88 3652.97 6398.71 3629.76 6374.36 3611.94C6314.37 3651.94 6269.89 3622.86 6255.15 3603.32C6179.78 3625.39 6158.38 3584.93 6157.09 3561.94C6137.1 3581.25 6098.77 3569.99 6082.11 3561.94Z" fill="url(#paint15_linear)"/>
<path d="M5909.07 3094.73V2830.95H5930.22V3094.73C5920.99 3111.28 5989.18 3110.82 6024.43 3108.52C6029.05 3133.35 5980.21 3151.05 5955.21 3156.8C5964.83 3183.81 5973.29 3238.52 5930.22 3241.27C5887.15 3244.03 5891.77 3186.11 5899.46 3156.8C5834.09 3174.04 5799.48 3065.42 5824.47 3094.73C5844.47 3118.18 5889.2 3104.5 5909.07 3094.73Z" fill="#00608D"/>
<path d="M6954.88 3070.53V2806.81H6933.81V3070.53C6943.01 3087.08 6875.07 3086.62 6839.95 3084.32C6835.35 3109.14 6884.01 3126.84 6908.91 3132.58C6899.33 3159.59 6890.9 3214.28 6933.81 3217.04C6976.72 3219.8 6972.12 3161.88 6964.46 3132.58C7029.59 3149.82 7064.07 3041.23 7039.17 3070.53C7019.25 3093.97 6974.68 3080.3 6954.88 3070.53Z" fill="#00608D"/>
<path d="M6676.21 3265.41C6816.18 3222.65 6816.57 2941.86 6799.26 2806.81H6689.67L6676.21 3265.41Z" fill="#00608D"/>
<path d="M6226.31 3275.75C6104.8 3277.13 6051.35 2982.09 6039.81 2834.4L6124.41 2822.33L6226.31 3275.75Z" fill="#00608D"/>
<path d="M6095.57 2798.19C6296.17 2676.93 6707.75 2503.04 6749.28 2777.5C6755.69 2819.89 6760.78 2860.15 6764.12 2898.19C6764.3 2880.34 6776.19 2851.22 6822.34 2877.5C6880.02 2910.34 6845 3061.97 6762.53 3080.93C6739.25 3238.66 6644.44 3329.38 6412.81 3339.54C6246.3 3346.84 6161.69 3222.41 6122.73 3080.93C6080.99 3064.84 6002.51 3017.14 6022.51 2955.08C6042.51 2893.01 6079.55 2899.4 6095.57 2910.34C6093.1 2869.34 6093.42 2830.93 6095.57 2798.19Z" fill="#00608D"/>
<path d="M6095.57 2798.19C6296.17 2676.93 6707.75 2503.04 6749.28 2777.5C6755.69 2819.89 6760.78 2860.15 6764.12 2898.19C6764.3 2880.34 6776.19 2851.22 6822.34 2877.5C6880.02 2910.34 6845 3061.97 6762.53 3080.93C6739.25 3238.66 6644.44 3329.38 6412.81 3339.54C6246.3 3346.84 6161.69 3222.41 6122.73 3080.93C6080.99 3064.84 6002.51 3017.14 6022.51 2955.08C6042.51 2893.01 6079.55 2899.4 6095.57 2910.34C6093.1 2869.34 6093.42 2830.93 6095.57 2798.19Z" fill="url(#paint16_linear)"/>
<path d="M5951.37 2474.08C5877.54 2545.8 5920.61 2657.97 5951.37 2705.1C6516.63 2570.62 6785.81 2822.33 6881.94 2705.1C6958.85 2611.31 6885.78 2512.01 6839.64 2474.08C6845.79 2567.86 6767.86 2584.41 6728.13 2580.97C6743.51 2454.08 6657.63 2392.47 6612.77 2377.53C6655.06 2553.38 6424.35 2529.25 6505.1 2432.7C6569.7 2355.46 6532.01 2264.89 6505.1 2229.26L6439.73 2298.23L6358.97 2132.72L6259 2298.23L6224.39 2229.26C6201.32 2246.5 6155.94 2296.16 6159.02 2356.84C6162.86 2432.7 6285.91 2474.08 6193.63 2518.9C6119.8 2554.76 6109.03 2451.09 6112.87 2394.77C6029.82 2403.05 6037.25 2536.14 6051.35 2601.66C6002.13 2593.38 5964.19 2513.15 5951.37 2474.08Z" fill="#00608D"/>
<path d="M5951.37 2474.08C5877.54 2545.8 5920.61 2657.97 5951.37 2705.1C6516.63 2570.62 6785.81 2822.33 6881.94 2705.1C6958.85 2611.31 6885.78 2512.01 6839.64 2474.08C6845.79 2567.86 6767.86 2584.41 6728.13 2580.97C6743.51 2454.08 6657.63 2392.47 6612.77 2377.53C6655.06 2553.38 6424.35 2529.25 6505.1 2432.7C6569.7 2355.46 6532.01 2264.89 6505.1 2229.26L6439.73 2298.23L6358.97 2132.72L6259 2298.23L6224.39 2229.26C6201.32 2246.5 6155.94 2296.16 6159.02 2356.84C6162.86 2432.7 6285.91 2474.08 6193.63 2518.9C6119.8 2554.76 6109.03 2451.09 6112.87 2394.77C6029.82 2403.05 6037.25 2536.14 6051.35 2601.66C6002.13 2593.38 5964.19 2513.15 5951.37 2474.08Z" fill="url(#paint17_linear)"/>
<path d="M6282.07 2760.27C5709.88 3003.01 5730.91 2675.21 5812.94 2480.97C5745.26 2803.71 6153.89 2647.63 6366.67 2529.25C6356.41 2520.05 6406.66 2528.56 6689.67 2636.14C6972.69 2743.72 7076.77 2577.52 7093.43 2480.97C7224.17 2936.12 6670.45 2811.99 6508.94 2760.27C6379.74 2718.89 6303.86 2743.03 6282.07 2760.27Z" fill="#00608D"/>
<path d="M6282.07 2760.27C5709.88 3003.01 5730.91 2675.21 5812.94 2480.97C5745.26 2803.71 6153.89 2647.63 6366.67 2529.25C6356.41 2520.05 6406.66 2528.56 6689.67 2636.14C6972.69 2743.72 7076.77 2577.52 7093.43 2480.97C7224.17 2936.12 6670.45 2811.99 6508.94 2760.27C6379.74 2718.89 6303.86 2743.03 6282.07 2760.27Z" fill="url(#paint18_linear)"/>
<ellipse cx="6085" cy="3055.94" rx="20.188" ry="19.8264" fill="#00608D"/>
<ellipse cx="6085" cy="3055.94" rx="20.188" ry="19.8264" fill="url(#paint19_linear)"/>
<ellipse cx="6085" cy="3055.94" rx="20.188" ry="19.8264" fill="url(#paint20_linear)"/>
<ellipse cx="6085" cy="3095.59" rx="20.188" ry="19.8264" fill="#00608D"/>
<ellipse cx="6085" cy="3095.59" rx="20.188" ry="19.8264" fill="url(#paint21_linear)"/>
<ellipse cx="6085" cy="3095.59" rx="20.188" ry="19.8264" fill="url(#paint22_linear)"/>
<ellipse cx="6085" cy="3254.2" rx="20.188" ry="19.8264" fill="#00608D"/>
<ellipse cx="6085" cy="3254.2" rx="20.188" ry="19.8264" fill="url(#paint23_linear)"/>
<ellipse cx="6085" cy="3254.2" rx="20.188" ry="19.8264" fill="url(#paint24_linear)"/>
<ellipse cx="6085" cy="3214.55" rx="20.188" ry="19.8264" fill="#00608D"/>
<ellipse cx="6085" cy="3214.55" rx="20.188" ry="19.8264" fill="url(#paint25_linear)"/>
<ellipse cx="6085" cy="3214.55" rx="20.188" ry="19.8264" fill="url(#paint26_linear)"/>
<ellipse cx="6085" cy="3174.9" rx="20.188" ry="19.8264" fill="#00608D"/>
<ellipse cx="6085" cy="3174.9" rx="20.188" ry="19.8264" fill="url(#paint27_linear)"/>
<ellipse cx="6085" cy="3174.9" rx="20.188" ry="19.8264" fill="url(#paint28_linear)"/>
<ellipse cx="6085" cy="3135.25" rx="20.188" ry="19.8264" fill="#00608D"/>
<ellipse cx="6085" cy="3135.25" rx="20.188" ry="19.8264" fill="url(#paint29_linear)"/>
<ellipse cx="6085" cy="3135.25" rx="20.188" ry="19.8264" fill="url(#paint30_linear)"/>
<ellipse cx="6805.99" cy="3057.66" rx="20.188" ry="19.8264" fill="#00608D"/>
<ellipse cx="6805.99" cy="3057.66" rx="20.188" ry="19.8264" fill="url(#paint31_linear)"/>
<ellipse cx="6805.99" cy="3057.66" rx="20.188" ry="19.8264" fill="url(#paint32_linear)"/>
<ellipse cx="6806" cy="3097.31" rx="20.188" ry="19.8264" fill="#00608D"/>
<ellipse cx="6806" cy="3097.31" rx="20.188" ry="19.8264" fill="url(#paint33_linear)"/>
<ellipse cx="6806" cy="3097.31" rx="20.188" ry="19.8264" fill="url(#paint34_linear)"/>
<ellipse cx="6806" cy="3255.93" rx="20.188" ry="19.8264" fill="#00608D"/>
<ellipse cx="6806" cy="3255.93" rx="20.188" ry="19.8264" fill="url(#paint35_linear)"/>
<ellipse cx="6806" cy="3255.93" rx="20.188" ry="19.8264" fill="url(#paint36_linear)"/>
<ellipse cx="6806" cy="3216.27" rx="20.188" ry="19.8264" fill="#00608D"/>
<ellipse cx="6806" cy="3216.27" rx="20.188" ry="19.8264" fill="url(#paint37_linear)"/>
<ellipse cx="6806" cy="3216.27" rx="20.188" ry="19.8264" fill="url(#paint38_linear)"/>
<ellipse cx="6806" cy="3176.62" rx="20.188" ry="19.8264" fill="#00608D"/>
<ellipse cx="6806" cy="3176.62" rx="20.188" ry="19.8264" fill="url(#paint39_linear)"/>
<ellipse cx="6806" cy="3176.62" rx="20.188" ry="19.8264" fill="url(#paint40_linear)"/>
<ellipse cx="6806" cy="3136.97" rx="20.188" ry="19.8264" fill="#00608D"/>
<ellipse cx="6806" cy="3136.97" rx="20.188" ry="19.8264" fill="url(#paint41_linear)"/>
<ellipse cx="6806" cy="3136.97" rx="20.188" ry="19.8264" fill="url(#paint42_linear)"/>
<path d="M6728.13 3855.03H6166.71V3994.68H6374.36C6314.37 4078.81 6310.91 4260.75 6316.68 4341.21H6505.1V3994.68H6728.13V3855.03Z" fill="#00608D"/>
</g>
<g filter="url(#filter3_d)">
<path d="M7819.35 4705.82L7747.74 3957.8H7314.53V4689.76H7479.22L7540.09 4192.16L7618.85 4705.82H7819.35Z" fill="#00608D"/>
<path d="M7819.35 4705.82L7747.74 3957.8H7314.53V4689.76H7479.22L7540.09 4192.16L7618.85 4705.82H7819.35Z" fill="url(#paint43_linear)"/>
<path d="M7916.01 3437.73C7878.78 3304.18 7716.71 3270.79 7640.33 3270.79C7528.63 3214.29 7400.46 3266.51 7350.34 3299.69C7221.45 3281.71 7170.13 3643.19 7160.58 3826.18L7275.15 3938.55L7246.51 4368.73H7837.25L7779.96 3961.02L7805.02 3636.77L7837.25 3733.08L7805.02 3761.98V3938.55L7980.46 3826.18C7974.49 3752.35 7953.25 3571.28 7916.01 3437.73Z" fill="#00608D"/>
<path d="M7916.01 3437.73C7878.78 3304.18 7716.71 3270.79 7640.33 3270.79C7528.63 3214.29 7400.46 3266.51 7350.34 3299.69C7221.45 3281.71 7170.13 3643.19 7160.58 3826.18L7275.15 3938.55L7246.51 4368.73H7837.25L7779.96 3961.02L7805.02 3636.77L7837.25 3733.08L7805.02 3761.98V3938.55L7980.46 3826.18C7974.49 3752.35 7953.25 3571.28 7916.01 3437.73Z" fill="url(#paint44_linear)"/>
<path d="M7880.21 2924.07L7862.31 2741.08L7765.64 2715.4V2924.07H7880.21Z" fill="#00608D"/>
<path d="M7207.13 2943.34L7275.15 2715.4H7189.23L7146.26 2924.07L7207.13 2943.34Z" fill="#00608D"/>
<path d="M7819.34 2917.66L7787.12 2760.35C7787.12 2660.19 7414.78 2680.09 7228.61 2702.56L7210.71 2917.66C7179.2 2889.41 7157 2884.48 7149.84 2885.55C7069.65 2965.17 7140.3 3010.76 7185.64 3023.6C7198.77 3116.7 7280.88 3302.9 7504.28 3302.9C7727.69 3302.9 7819.34 3129.54 7837.25 3042.86C7894.53 3032.59 7925.56 2978.65 7933.91 2952.97C7928.18 2811.72 7855.15 2870.57 7819.34 2917.66Z" fill="#00608D"/>
<path d="M7819.34 2917.66L7787.12 2760.35C7787.12 2660.19 7414.78 2680.09 7228.61 2702.56L7210.71 2917.66C7179.2 2889.41 7157 2884.48 7149.84 2885.55C7069.65 2965.17 7140.3 3010.76 7185.64 3023.6C7198.77 3116.7 7280.88 3302.9 7504.28 3302.9C7727.69 3302.9 7819.34 3129.54 7837.25 3042.86C7894.53 3032.59 7925.56 2978.65 7933.91 2952.97C7928.18 2811.72 7855.15 2870.57 7819.34 2917.66Z" fill="url(#paint45_linear)"/>
<path d="M7869.47 2448.94V2593.41H7171.33C7128.36 2462.43 7170.13 2418.98 7196.39 2413.63C7193.52 2344.29 7233.38 2335.51 7253.67 2339.79C7233.62 2280.72 7281.12 2257.39 7307.37 2253.11C7307.37 2183.77 7364.66 2172.85 7393.3 2176.06C7387.57 2114.42 7433.88 2103.3 7457.74 2105.44C7500.71 2048.93 7542.48 2081.89 7557.99 2105.44C7632.46 2097.73 7636.75 2149.31 7629.59 2176.06C7698.33 2158.09 7710.75 2219.94 7708.36 2253.11C7759.91 2247.98 7770.42 2308.76 7769.22 2339.79C7823.64 2357.77 7822.93 2396.51 7815.77 2413.63L7869.47 2448.94Z" fill="#00608D"/>
<path d="M7869.47 2448.94V2593.41H7171.33C7128.36 2462.43 7170.13 2418.98 7196.39 2413.63C7193.52 2344.29 7233.38 2335.51 7253.67 2339.79C7233.62 2280.72 7281.12 2257.39 7307.37 2253.11C7307.37 2183.77 7364.66 2172.85 7393.3 2176.06C7387.57 2114.42 7433.88 2103.3 7457.74 2105.44C7500.71 2048.93 7542.48 2081.89 7557.99 2105.44C7632.46 2097.73 7636.75 2149.31 7629.59 2176.06C7698.33 2158.09 7710.75 2219.94 7708.36 2253.11C7759.91 2247.98 7770.42 2308.76 7769.22 2339.79C7823.64 2357.77 7822.93 2396.51 7815.77 2413.63L7869.47 2448.94Z" fill="url(#paint46_linear)"/>
<path d="M7880.21 4394.42C7914.58 4381.57 7842.02 4183.6 7801.44 4086.22L7665.4 3941.76L7729.84 4394.42C7723.87 4402.98 7724.11 4414.96 7772.8 4394.42C7833.67 4368.73 7837.25 4410.47 7880.21 4394.42Z" fill="#00608D"/>
<path d="M7880.21 4394.42C7914.58 4381.57 7842.02 4183.6 7801.44 4086.22L7665.4 3941.76L7729.84 4394.42C7723.87 4402.98 7724.11 4414.96 7772.8 4394.42C7833.67 4368.73 7837.25 4410.47 7880.21 4394.42Z" fill="url(#paint47_linear)"/>
<path d="M7865.89 2782.82V2583.78C7550.83 2357.77 7276.35 2489.61 7178.49 2583.78V2757.14C7419.08 2656.97 7737 2732.52 7865.89 2782.82Z" fill="#00608D"/>
<path d="M7865.89 2782.82V2583.78C7550.83 2357.77 7276.35 2489.61 7178.49 2583.78V2757.14C7419.08 2656.97 7737 2732.52 7865.89 2782.82Z" fill="url(#paint48_linear)"/>
<path d="M7951.82 4108.69L7818.91 3961.01C7777.76 3961.01 7801.77 3826.18 7818.91 3758.76H7711.74L7681.73 3829.39H7278.73V3961.01C7285.59 4009.81 7550.25 4002.75 7681.73 3993.12L7818.91 4147.21L7951.82 4108.69Z" fill="#00608D"/>
<path d="M7672.56 3261.16L7840.83 3319.99C7840.83 3403.03 7621.24 3700.61 7511.45 3839.02C7485.67 3830.72 7300.21 3503.38 7210.71 3340.75L7368.24 3261.16C7376.83 3371.89 7467.29 3459.55 7511.45 3489.54C7542.95 3492.31 7631.98 3338.44 7672.56 3261.16Z" fill="#00608D"/>
</g>
<g filter="url(#filter4_d)">
<path fill-rule="evenodd" clip-rule="evenodd" d="M-2 1322.61V522H7998V1396.4C7614.94 1638.69 7311.07 1772.19 6805.02 1878.73C6358.06 1972.82 5739.8 1726.42 5117.48 1478.4C4783.67 1345.36 4448.69 1211.85 4138.35 1130.19C3687.74 1011.61 3348.34 1205.61 2963.22 1425.75C2588.62 1639.88 2170.77 1878.73 1565.25 1878.73C1119.83 1878.73 563.039 1602.63 116.228 1381.07C75.867 1361.06 36.4032 1341.49 -2 1322.61Z" fill="#62CCFF"/>
</g>
<g filter="url(#filter5_d)">
<path fill-rule="evenodd" clip-rule="evenodd" d="M-2 1410.03V54H7998V616.14C7808.14 572.915 7602.08 606.645 7448.29 860.157C7445.28 865.121 7442.24 870.16 7439.15 875.266C7268.39 1157.76 6973.5 1645.61 5617.88 860.157C4860.45 421.295 4494.27 686.786 4082.16 985.58C3845.42 1157.22 3593.53 1339.85 3243.61 1406.26C2774.88 1495.23 2412.3 1284.48 2090.35 1097.34C1753.58 901.578 1461.25 731.656 1138.35 957.675C714.06 1254.67 261.453 1393.65 -2 1410.03Z" fill="#9ADFFF"/>
</g>
<g filter="url(#filter6_d)">
<path fill-rule="evenodd" clip-rule="evenodd" d="M1 657.892V0H8001V886.799C7886.81 935.819 7734.71 950.812 7527.32 912.281C6994.03 813.201 6698.9 629.897 6442.93 470.912C6185.22 310.85 5967.19 175.439 5585.8 175.439C5214.39 175.439 5050.95 360.627 4874.54 560.506C4689.87 769.758 4490.98 995.11 4024.39 1040.94C3678.96 1074.86 3424.61 874.551 3154.98 662.2C2913.37 471.918 2659.49 271.969 2316.79 222.222C1938.46 167.304 1742.39 259.813 1457.61 394.18C1288.98 473.74 1089.25 567.976 802.17 654.97C475.955 753.823 205.831 738.972 1 657.892Z" fill="#C3ECFF"/>
</g>
<g filter="url(#filter7_d)">
<path fill-rule="evenodd" clip-rule="evenodd" d="M1 4797.85V5598.79H8001V4724.04C7617.94 4481.64 7314.07 4348.09 6808.02 4241.51C6361.06 4147.38 5742.8 4393.88 5120.48 4642C4786.67 4775.09 4451.69 4908.65 4141.35 4990.35C3690.74 5108.98 3351.34 4914.9 2966.22 4694.67C2591.62 4480.46 2173.77 4241.51 1568.25 4241.51C1122.83 4241.51 566.039 4517.72 119.228 4739.37C78.8671 4759.39 39.4033 4778.97 1 4797.85Z" fill="#62CCFF"/>
</g>
<g filter="url(#filter8_d)">
<path fill-rule="evenodd" clip-rule="evenodd" d="M1 4711.04V6118H8001V5534.75C7811.14 5579.59 7605.08 5544.6 7451.29 5281.56C7448.28 5276.41 7445.24 5271.19 7442.15 5265.89C7271.39 4972.78 6976.5 4466.61 5620.88 5281.56C4863.45 5736.91 4497.27 5461.45 4085.16 5151.43C3848.42 4973.34 3596.53 4783.86 3246.61 4714.95C2777.88 4622.64 2415.3 4841.3 2093.35 5035.47C1756.58 5238.59 1464.25 5414.89 1141.35 5180.38C717.06 4872.24 264.453 4728.04 1 4711.04Z" fill="#9ADFFF"/>
</g>
<g filter="url(#filter9_d)">
<path fill-rule="evenodd" clip-rule="evenodd" d="M-49 5462.84V6121H8004V5233.84C7889.05 5184.8 7735.94 5169.8 7527.18 5208.35C6990.36 5307.47 6693.28 5490.85 6435.6 5649.9C6176.19 5810.02 5956.72 5945.49 5572.79 5945.49C5198.93 5945.49 5034.4 5760.23 4856.83 5560.27C4670.93 5350.93 4470.73 5125.49 4001.05 5079.64C3653.32 5045.7 3397.29 5246.09 3125.88 5458.53C2882.67 5648.89 2627.1 5848.92 2282.13 5898.69C1901.3 5953.63 1703.93 5861.08 1417.26 5726.66C1247.51 5647.07 1046.46 5552.79 757.477 5465.76C429.101 5366.87 157.188 5381.73 -49 5462.84Z" fill="#C3ECFF"/>
</g>
<defs>
<filter id="filter0_d" x="-2" y="2091.78" width="1051.76" height="2739.15" filterUnits="userSpaceOnUse" color-interpolation-filters="sRGB">
<feFlood flood-opacity="0" result="BackgroundImageFix"/>
<feColorMatrix in="SourceAlpha" type="matrix" values="0 0 0 0 0 0 0 0 0 0 0 0 0 0 0 0 0 0 127 0"/>
<feOffset dx="7" dy="10"/>
<feGaussianBlur stdDeviation="2"/>
<feColorMatrix type="matrix" values="0 0 0 0 0 0 0 0 0 0 0 0 0 0 0 0 0 0 0.25 0"/>
<feBlend mode="normal" in2="BackgroundImageFix" result="effect1_dropShadow"/>
<feBlend mode="normal" in="SourceGraphic" in2="effect1_dropShadow" result="shape"/>
</filter>
<filter id="filter1_d" x="1075.19" y="2243.83" width="1144.33" height="2645.58" filterUnits="userSpaceOnUse" color-interpolation-filters="sRGB">
<feFlood flood-opacity="0" result="BackgroundImageFix"/>
<feColorMatrix in="SourceAlpha" type="matrix" values="0 0 0 0 0 0 0 0 0 0 0 0 0 0 0 0 0 0 127 0"/>
<feOffset dx="7" dy="10"/>
<feGaussianBlur stdDeviation="2"/>
<feColorMatrix type="matrix" values="0 0 0 0 0 0 0 0 0 0 0 0 0 0 0 0 0 0 0.25 0"/>
<feBlend mode="normal" in2="BackgroundImageFix" result="effect1_dropShadow"/>
<feBlend mode="normal" in="SourceGraphic" in2="effect1_dropShadow" result="shape"/>
</filter>
<filter id="filter2_d" x="5769.93" y="2132.72" width="1354.29" height="2645.58" filterUnits="userSpaceOnUse" color-interpolation-filters="sRGB">
<feFlood flood-opacity="0" result="BackgroundImageFix"/>
<feColorMatrix in="SourceAlpha" type="matrix" values="0 0 0 0 0 0 0 0 0 0 0 0 0 0 0 0 0 0 127 0"/>
<feOffset dx="7" dy="10"/>
<feGaussianBlur stdDeviation="2"/>
<feColorMatrix type="matrix" values="0 0 0 0 0 0 0 0 0 0 0 0 0 0 0 0 0 0 0.25 0"/>
<feBlend mode="normal" in2="BackgroundImageFix" result="effect1_dropShadow"/>
<feBlend mode="normal" in="SourceGraphic" in2="effect1_dropShadow" result="shape"/>
</filter>
<filter id="filter3_d" x="7113.4" y="2074.24" width="878.058" height="2645.58" filterUnits="userSpaceOnUse" color-interpolation-filters="sRGB">
<feFlood flood-opacity="0" result="BackgroundImageFix"/>
<feColorMatrix in="SourceAlpha" type="matrix" values="0 0 0 0 0 0 0 0 0 0 0 0 0 0 0 0 0 0 127 0"/>
<feOffset dx="7" dy="10"/>
<feGaussianBlur stdDeviation="2"/>
<feColorMatrix type="matrix" values="0 0 0 0 0 0 0 0 0 0 0 0 0 0 0 0 0 0 0.25 0"/>
<feBlend mode="normal" in2="BackgroundImageFix" result="effect1_dropShadow"/>
<feBlend mode="normal" in="SourceGraphic" in2="effect1_dropShadow" result="shape"/>
</filter>
<filter id="filter4_d" x="-2" y="522" width="8018" height="1411.23" filterUnits="userSpaceOnUse" color-interpolation-filters="sRGB">
<feFlood flood-opacity="0" result="BackgroundImageFix"/>
<feColorMatrix in="SourceAlpha" type="matrix" values="0 0 0 0 0 0 0 0 0 0 0 0 0 0 0 0 0 0 127 0"/>
<feOffset dx="14" dy="30"/>
<feGaussianBlur stdDeviation="2"/>
<feColorMatrix type="matrix" values="0 0 0 0 0 0 0 0 0 0 0 0 0 0 0 0 0 0 0.25 0"/>
<feBlend mode="normal" in2="BackgroundImageFix" result="effect1_dropShadow"/>
<feBlend mode="normal" in="SourceGraphic" in2="effect1_dropShadow" result="shape"/>
</filter>
<filter id="filter5_d" x="-2" y="54" width="8018" height="1407.28" filterUnits="userSpaceOnUse" color-interpolation-filters="sRGB">
<feFlood flood-opacity="0" result="BackgroundImageFix"/>
<feColorMatrix in="SourceAlpha" type="matrix" values="0 0 0 0 0 0 0 0 0 0 0 0 0 0 0 0 0 0 127 0"/>
<feOffset dx="14" dy="30"/>
<feGaussianBlur stdDeviation="2"/>
<feColorMatrix type="matrix" values="0 0 0 0 0 0 0 0 0 0 0 0 0 0 0 0 0 0 0.25 0"/>
<feBlend mode="normal" in2="BackgroundImageFix" result="effect1_dropShadow"/>
<feBlend mode="normal" in="SourceGraphic" in2="effect1_dropShadow" result="shape"/>
</filter>
<filter id="filter6_d" x="1" y="0" width="8018" height="1079.71" filterUnits="userSpaceOnUse" color-interpolation-filters="sRGB">
<feFlood flood-opacity="0" result="BackgroundImageFix"/>
<feColorMatrix in="SourceAlpha" type="matrix" values="0 0 0 0 0 0 0 0 0 0 0 0 0 0 0 0 0 0 127 0"/>
<feOffset dx="14" dy="31"/>
<feGaussianBlur stdDeviation="2"/>
<feColorMatrix type="matrix" values="0 0 0 0 0 0 0 0 0 0 0 0 0 0 0 0 0 0 0.25 0"/>
<feBlend mode="normal" in2="BackgroundImageFix" result="effect1_dropShadow"/>
<feBlend mode="normal" in="SourceGraphic" in2="effect1_dropShadow" result="shape"/>
</filter>
<filter id="filter7_d" x="-17" y="4187" width="8018" height="1411.79" filterUnits="userSpaceOnUse" color-interpolation-filters="sRGB">
<feFlood flood-opacity="0" result="BackgroundImageFix"/>
<feColorMatrix in="SourceAlpha" type="matrix" values="0 0 0 0 0 0 0 0 0 0 0 0 0 0 0 0 0 0 127 0"/>
<feOffset dx="-14" dy="-30"/>
<feGaussianBlur stdDeviation="2"/>
<feColorMatrix type="matrix" values="0 0 0 0 0 0 0 0 0 0 0 0 0 0 0 0 0 0 0.25 0"/>
<feBlend mode="normal" in2="BackgroundImageFix" result="effect1_dropShadow"/>
<feBlend mode="normal" in="SourceGraphic" in2="effect1_dropShadow" result="shape"/>
</filter>
<filter id="filter8_d" x="-17" y="4659.14" width="8018" height="1458.86" filterUnits="userSpaceOnUse" color-interpolation-filters="sRGB">
<feFlood flood-opacity="0" result="BackgroundImageFix"/>
<feColorMatrix in="SourceAlpha" type="matrix" values="0 0 0 0 0 0 0 0 0 0 0 0 0 0 0 0 0 0 127 0"/>
<feOffset dx="-14" dy="-30"/>
<feGaussianBlur stdDeviation="2"/>
<feColorMatrix type="matrix" values="0 0 0 0 0 0 0 0 0 0 0 0 0 0 0 0 0 0 0.25 0"/>
<feBlend mode="normal" in2="BackgroundImageFix" result="effect1_dropShadow"/>
<feBlend mode="normal" in="SourceGraphic" in2="effect1_dropShadow" result="shape"/>
</filter>
<filter id="filter9_d" x="-67" y="5040.87" width="8071" height="1080.13" filterUnits="userSpaceOnUse" color-interpolation-filters="sRGB">
<feFlood flood-opacity="0" result="BackgroundImageFix"/>
<feColorMatrix in="SourceAlpha" type="matrix" values="0 0 0 0 0 0 0 0 0 0 0 0 0 0 0 0 0 0 127 0"/>
<feOffset dx="-14" dy="-31"/>
<feGaussianBlur stdDeviation="2"/>
<feColorMatrix type="matrix" values="0 0 0 0 0 0 0 0 0 0 0 0 0 0 0 0 0 0 0.25 0"/>
<feBlend mode="normal" in2="BackgroundImageFix" result="effect1_dropShadow"/>
<feBlend mode="normal" in="SourceGraphic" in2="effect1_dropShadow" result="shape"/>
</filter>
<linearGradient id="paint0_linear" x1="592.856" y1="4081.38" x2="592.856" y2="4816.93" gradientUnits="userSpaceOnUse">
<stop stop-color="#0083C1"/>
<stop offset="1" stop-color="white" stop-opacity="0"/>
</linearGradient>
<linearGradient id="paint1_linear" x1="488.758" y1="3144.55" x2="488.758" y2="4195.27" gradientUnits="userSpaceOnUse">
<stop stop-color="#0083C1"/>
<stop offset="1" stop-color="white" stop-opacity="0"/>
</linearGradient>
<linearGradient id="paint2_linear" x1="656.248" y1="2102.53" x2="656.248" y2="2591.31" gradientUnits="userSpaceOnUse">
<stop stop-color="#0083C1"/>
<stop offset="1" stop-color="white" stop-opacity="0"/>
</linearGradient>
<linearGradient id="paint3_linear" x1="616.878" y1="2591.31" x2="616.878" y2="3181.45" gradientUnits="userSpaceOnUse">
<stop stop-color="#0083C1"/>
<stop offset="1" stop-color="white" stop-opacity="0"/>
</linearGradient>
<linearGradient id="paint4_linear" x1="1563.04" y1="4418.69" x2="1563.04" y2="4875.41" gradientUnits="userSpaceOnUse">
<stop stop-color="#55769F"/>
<stop offset="1" stop-color="white" stop-opacity="0"/>
</linearGradient>
<linearGradient id="paint5_linear" x1="1605.37" y1="3202.92" x2="1605.37" y2="4538.74" gradientUnits="userSpaceOnUse">
<stop stop-color="#0083C1"/>
<stop offset="1" stop-color="white" stop-opacity="0"/>
</linearGradient>
<linearGradient id="paint6_linear" x1="1619.17" y1="2521.28" x2="1619.17" y2="3238.64" gradientUnits="userSpaceOnUse">
<stop stop-color="#0083C1"/>
<stop offset="1" stop-color="white" stop-opacity="0"/>
</linearGradient>
<linearGradient id="paint7_linear" x1="1385.19" y1="2503.66" x2="1385.19" y2="3029.96" gradientUnits="userSpaceOnUse">
<stop stop-color="#0083C1"/>
<stop offset="1" stop-color="white" stop-opacity="0"/>
</linearGradient>
<linearGradient id="paint8_linear" x1="1641.86" y1="2243.83" x2="1641.86" y2="2816.32" gradientUnits="userSpaceOnUse">
<stop stop-color="#0083C1"/>
<stop offset="0.827416" stop-color="white" stop-opacity="0"/>
</linearGradient>
<linearGradient id="paint9_linear" x1="1641.86" y1="2243.83" x2="1641.86" y2="2816.32" gradientUnits="userSpaceOnUse">
<stop stop-color="#0083C1"/>
<stop offset="0.827416" stop-color="white" stop-opacity="0"/>
</linearGradient>
<linearGradient id="paint10_linear" x1="1585.95" y1="2331.82" x2="1585.95" y2="3075.89" gradientUnits="userSpaceOnUse">
<stop stop-color="#0083C1"/>
<stop offset="1" stop-color="white" stop-opacity="0"/>
</linearGradient>
<linearGradient id="paint11_linear" x1="6487.32" y1="3492.98" x2="6487.32" y2="4091.22" gradientUnits="userSpaceOnUse">
<stop stop-color="#0083C1"/>
<stop offset="1" stop-color="white" stop-opacity="0"/>
</linearGradient>
<linearGradient id="paint12_linear" x1="6487.32" y1="3492.98" x2="6487.32" y2="4091.22" gradientUnits="userSpaceOnUse">
<stop stop-color="#0083C1"/>
<stop offset="1" stop-color="white" stop-opacity="0"/>
</linearGradient>
<linearGradient id="paint13_linear" x1="6435.88" y1="4130.87" x2="6435.88" y2="4764.3" gradientUnits="userSpaceOnUse">
<stop stop-color="#0083C1"/>
<stop offset="1" stop-color="white" stop-opacity="0"/>
</linearGradient>
<linearGradient id="paint14_linear" x1="6435.88" y1="3539.53" x2="6435.88" y2="4221.42" gradientUnits="userSpaceOnUse">
<stop stop-color="#0083C1"/>
<stop offset="1" stop-color="white" stop-opacity="0"/>
</linearGradient>
<linearGradient id="paint15_linear" x1="6462.34" y1="3304.95" x2="6462.34" y2="3633.22" gradientUnits="userSpaceOnUse">
<stop stop-color="#0083C1"/>
<stop offset="1" stop-color="white" stop-opacity="0"/>
</linearGradient>
<linearGradient id="paint16_linear" x1="6431.19" y1="2631.24" x2="6431.19" y2="3339.84" gradientUnits="userSpaceOnUse">
<stop stop-color="#0083C1"/>
<stop offset="1" stop-color="white" stop-opacity="0"/>
</linearGradient>
<linearGradient id="paint17_linear" x1="6413.05" y1="2132.72" x2="6413.05" y2="2737.21" gradientUnits="userSpaceOnUse">
<stop stop-color="#0083C1"/>
<stop offset="1" stop-color="white" stop-opacity="0"/>
</linearGradient>
<linearGradient id="paint18_linear" x1="6441.58" y1="2480.97" x2="6441.58" y2="2846.35" gradientUnits="userSpaceOnUse">
<stop stop-color="#0083C1"/>
<stop offset="1" stop-color="white" stop-opacity="0"/>
</linearGradient>
<linearGradient id="paint19_linear" x1="6085" y1="3036.11" x2="6085" y2="3075.77" gradientUnits="userSpaceOnUse">
<stop stop-color="#0083C1"/>
<stop offset="1" stop-color="white" stop-opacity="0"/>
</linearGradient>
<linearGradient id="paint20_linear" x1="6085" y1="3036.11" x2="6085" y2="3075.77" gradientUnits="userSpaceOnUse">
<stop stop-color="#0083C1"/>
<stop offset="1" stop-color="white" stop-opacity="0"/>
</linearGradient>
<linearGradient id="paint21_linear" x1="6085" y1="3075.76" x2="6085" y2="3115.42" gradientUnits="userSpaceOnUse">
<stop stop-color="#0083C1"/>
<stop offset="1" stop-color="white" stop-opacity="0"/>
</linearGradient>
<linearGradient id="paint22_linear" x1="6085" y1="3075.76" x2="6085" y2="3115.42" gradientUnits="userSpaceOnUse">
<stop stop-color="#0083C1"/>
<stop offset="1" stop-color="white" stop-opacity="0"/>
</linearGradient>
<linearGradient id="paint23_linear" x1="6085" y1="3234.38" x2="6085" y2="3274.03" gradientUnits="userSpaceOnUse">
<stop stop-color="#0083C1"/>
<stop offset="1" stop-color="white" stop-opacity="0"/>
</linearGradient>
<linearGradient id="paint24_linear" x1="6085" y1="3234.38" x2="6085" y2="3274.03" gradientUnits="userSpaceOnUse">
<stop stop-color="#0083C1"/>
<stop offset="1" stop-color="white" stop-opacity="0"/>
</linearGradient>
<linearGradient id="paint25_linear" x1="6085" y1="3194.72" x2="6085" y2="3234.37" gradientUnits="userSpaceOnUse">
<stop stop-color="#0083C1"/>
<stop offset="1" stop-color="white" stop-opacity="0"/>
</linearGradient>
<linearGradient id="paint26_linear" x1="6085" y1="3194.72" x2="6085" y2="3234.37" gradientUnits="userSpaceOnUse">
<stop stop-color="#0083C1"/>
<stop offset="1" stop-color="white" stop-opacity="0"/>
</linearGradient>
<linearGradient id="paint27_linear" x1="6085" y1="3155.07" x2="6085" y2="3194.72" gradientUnits="userSpaceOnUse">
<stop stop-color="#0083C1"/>
<stop offset="1" stop-color="white" stop-opacity="0"/>
</linearGradient>
<linearGradient id="paint28_linear" x1="6085" y1="3155.07" x2="6085" y2="3194.72" gradientUnits="userSpaceOnUse">
<stop stop-color="#0083C1"/>
<stop offset="1" stop-color="white" stop-opacity="0"/>
</linearGradient>
<linearGradient id="paint29_linear" x1="6085" y1="3115.42" x2="6085" y2="3155.07" gradientUnits="userSpaceOnUse">
<stop stop-color="#0083C1"/>
<stop offset="1" stop-color="white" stop-opacity="0"/>
</linearGradient>
<linearGradient id="paint30_linear" x1="6085" y1="3115.42" x2="6085" y2="3155.07" gradientUnits="userSpaceOnUse">
<stop stop-color="#0083C1"/>
<stop offset="1" stop-color="white" stop-opacity="0"/>
</linearGradient>
<linearGradient id="paint31_linear" x1="6805.99" y1="3037.84" x2="6805.99" y2="3077.49" gradientUnits="userSpaceOnUse">
<stop stop-color="#0083C1"/>
<stop offset="1" stop-color="white" stop-opacity="0"/>
</linearGradient>
<linearGradient id="paint32_linear" x1="6805.99" y1="3037.84" x2="6805.99" y2="3077.49" gradientUnits="userSpaceOnUse">
<stop stop-color="#0083C1"/>
<stop offset="1" stop-color="white" stop-opacity="0"/>
</linearGradient>
<linearGradient id="paint33_linear" x1="6806" y1="3077.49" x2="6806" y2="3117.14" gradientUnits="userSpaceOnUse">
<stop stop-color="#0083C1"/>
<stop offset="1" stop-color="white" stop-opacity="0"/>
</linearGradient>
<linearGradient id="paint34_linear" x1="6806" y1="3077.49" x2="6806" y2="3117.14" gradientUnits="userSpaceOnUse">
<stop stop-color="#0083C1"/>
<stop offset="1" stop-color="white" stop-opacity="0"/>
</linearGradient>
<linearGradient id="paint35_linear" x1="6806" y1="3236.1" x2="6806" y2="3275.75" gradientUnits="userSpaceOnUse">
<stop stop-color="#0083C1"/>
<stop offset="1" stop-color="white" stop-opacity="0"/>
</linearGradient>
<linearGradient id="paint36_linear" x1="6806" y1="3236.1" x2="6806" y2="3275.75" gradientUnits="userSpaceOnUse">
<stop stop-color="#0083C1"/>
<stop offset="1" stop-color="white" stop-opacity="0"/>
</linearGradient>
<linearGradient id="paint37_linear" x1="6806" y1="3196.45" x2="6806" y2="3236.1" gradientUnits="userSpaceOnUse">
<stop stop-color="#0083C1"/>
<stop offset="1" stop-color="white" stop-opacity="0"/>
</linearGradient>
<linearGradient id="paint38_linear" x1="6806" y1="3196.45" x2="6806" y2="3236.1" gradientUnits="userSpaceOnUse">
<stop stop-color="#0083C1"/>
<stop offset="1" stop-color="white" stop-opacity="0"/>
</linearGradient>
<linearGradient id="paint39_linear" x1="6806" y1="3156.79" x2="6806" y2="3196.45" gradientUnits="userSpaceOnUse">
<stop stop-color="#0083C1"/>
<stop offset="1" stop-color="white" stop-opacity="0"/>
</linearGradient>
<linearGradient id="paint40_linear" x1="6806" y1="3156.79" x2="6806" y2="3196.45" gradientUnits="userSpaceOnUse">
<stop stop-color="#0083C1"/>
<stop offset="1" stop-color="white" stop-opacity="0"/>
</linearGradient>
<linearGradient id="paint41_linear" x1="6806" y1="3117.14" x2="6806" y2="3156.8" gradientUnits="userSpaceOnUse">
<stop stop-color="#0083C1"/>
<stop offset="1" stop-color="white" stop-opacity="0"/>
</linearGradient>
<linearGradient id="paint42_linear" x1="6806" y1="3117.14" x2="6806" y2="3156.8" gradientUnits="userSpaceOnUse">
<stop stop-color="#0083C1"/>
<stop offset="1" stop-color="white" stop-opacity="0"/>
</linearGradient>
<linearGradient id="paint43_linear" x1="7566.94" y1="3957.8" x2="7566.94" y2="4705.82" gradientUnits="userSpaceOnUse">
<stop stop-color="#0083C1"/>
<stop offset="1" stop-color="white" stop-opacity="0"/>
</linearGradient>
<linearGradient id="paint44_linear" x1="7570.52" y1="3245.76" x2="7570.52" y2="4368.73" gradientUnits="userSpaceOnUse">
<stop stop-color="#0083C1"/>
<stop offset="1" stop-color="white" stop-opacity="0"/>
</linearGradient>
<linearGradient id="paint45_linear" x1="7523.66" y1="2684.31" x2="7523.66" y2="3302.9" gradientUnits="userSpaceOnUse">
<stop stop-color="#0083C1"/>
<stop offset="1" stop-color="white" stop-opacity="0"/>
</linearGradient>
<linearGradient id="paint46_linear" x1="7511.14" y1="2074.24" x2="7511.14" y2="2593.41" gradientUnits="userSpaceOnUse">
<stop stop-color="#0083C1"/>
<stop offset="1" stop-color="white" stop-opacity="0"/>
</linearGradient>
<linearGradient id="paint47_linear" x1="7777.29" y1="3941.76" x2="7777.29" y2="4405.76" gradientUnits="userSpaceOnUse">
<stop stop-color="#0083C1"/>
<stop offset="1" stop-color="white" stop-opacity="0"/>
</linearGradient>
<linearGradient id="paint48_linear" x1="7522.19" y1="2458.99" x2="7522.19" y2="2782.82" gradientUnits="userSpaceOnUse">
<stop stop-color="#0083C1"/>
<stop offset="1" stop-color="white" stop-opacity="0"/>
</linearGradient>
</defs>
</svg>
