<svg width="7999" height="5184" viewBox="0 0 7999 5184" fill="none" xmlns="http://www.w3.org/2000/svg">
<path d="M7998.43 3451.91H-1.37231V5183.06H7998.43V3451.91Z" fill="#C3ECFF"/>
<path d="M7998.43 3451.91H-1.37231V5183.06H7998.43V3451.91Z" fill="url(#paint0_linear)"/>
<rect x="-1.56946" y="0.000488281" width="8000" height="3457.14" fill="#E6BA8B"/>
<rect x="-1.56946" y="0.000488281" width="8000" height="3457.14" fill="url(#paint1_radial)"/>
<g filter="url(#filter0_f)">
<path d="M2703.17 3517.17L1622.08 3451.43H6053.14L5356.12 3517.17L6152.72 3558.26L5356.12 3624L6053.14 3706.18H5156.97L5839.77 3804.79H5220.98L5903.78 3903.4H5021.83L5583.72 4010.23H4808.46L5512.59 4100.63H4716L5156.97 4215.67H4431.5L4865.36 4314.29H4232.35L4566.64 4394.29H3663.35L3834.05 4314.29H3791.38H3215.27L3748.7 4215.67H2930.77L3407.31 4141.71L2461.35 4100.63L3250.83 4010.23H1963.48C2293.02 3974.62 2969.18 3903.4 3037.46 3903.4C3105.74 3903.4 2349.92 3865.05 1963.48 3845.88L3087.25 3747.27L1735.88 3706.18L2788.52 3624L1472.72 3558.26L2703.17 3517.17Z" fill="#FFC89F"/>
<path d="M2703.17 3517.17L1622.08 3451.43H6053.14L5356.12 3517.17L6152.72 3558.26L5356.12 3624L6053.14 3706.18H5156.97L5839.77 3804.79H5220.98L5903.78 3903.4H5021.83L5583.72 4010.23H4808.46L5512.59 4100.63H4716L5156.97 4215.67H4431.5L4865.36 4314.29H4232.35L4566.64 4394.29H3663.35L3834.05 4314.29H3791.38H3215.27L3748.7 4215.67H2930.77L3407.31 4141.71L2461.35 4100.63L3250.83 4010.23H1963.48C2293.02 3974.62 2969.18 3903.4 3037.46 3903.4C3105.74 3903.4 2349.92 3865.05 1963.48 3845.88L3087.25 3747.27L1735.88 3706.18L2788.52 3624L1472.72 3558.26L2703.17 3517.17Z" fill="url(#paint2_linear)"/>
</g>
<g filter="url(#filter1_d)">
<path fill-rule="evenodd" clip-rule="evenodd" d="M5201.66 3451.63C5209.45 3396.04 5213.47 3339.25 5213.47 3281.51C5213.47 2610.51 4669.61 2066.54 3998.65 2066.37H3998.02C3327.07 2066.54 2783.2 2610.51 2783.2 3281.51C2783.2 3339.25 2787.22 3396.04 2795.01 3451.63H5201.66Z" fill="#FE4716"/>
<path fill-rule="evenodd" clip-rule="evenodd" d="M5201.66 3451.63C5209.45 3396.04 5213.47 3339.25 5213.47 3281.51C5213.47 2610.51 4669.61 2066.54 3998.65 2066.37H3998.02C3327.07 2066.54 2783.2 2610.51 2783.2 3281.51C2783.2 3339.25 2787.22 3396.04 2795.01 3451.63H5201.66Z" fill="url(#paint3_linear)"/>
</g>
<defs>
<filter id="filter0_f" x="1462.72" y="3441.43" width="4700" height="962.857" filterUnits="userSpaceOnUse" color-interpolation-filters="sRGB">
<feFlood flood-opacity="0" result="BackgroundImageFix"/>
<feBlend mode="normal" in="SourceGraphic" in2="BackgroundImageFix" result="shape"/>
<feGaussianBlur stdDeviation="5" result="effect1_foregroundBlur"/>
</filter>
<filter id="filter1_d" x="2779.2" y="2058.37" width="2438.28" height="1393.26" filterUnits="userSpaceOnUse" color-interpolation-filters="sRGB">
<feFlood flood-opacity="0" result="BackgroundImageFix"/>
<feColorMatrix in="SourceAlpha" type="matrix" values="0 0 0 0 0 0 0 0 0 0 0 0 0 0 0 0 0 0 127 0"/>
<feOffset dy="-4"/>
<feGaussianBlur stdDeviation="2"/>
<feColorMatrix type="matrix" values="0 0 0 0 1 0 0 0 0 0.921833 0 0 0 0 0.720833 0 0 0 1 0"/>
<feBlend mode="normal" in2="BackgroundImageFix" result="effect1_dropShadow"/>
<feBlend mode="normal" in="SourceGraphic" in2="effect1_dropShadow" result="shape"/>
</filter>
<linearGradient id="paint0_linear" x1="3998.53" y1="3451.91" x2="3998.53" y2="4698.14" gradientUnits="userSpaceOnUse">
<stop stop-color="white"/>
<stop offset="1" stop-color="white" stop-opacity="0"/>
</linearGradient>
<radialGradient id="paint1_radial" cx="0" cy="0" r="1" gradientUnits="userSpaceOnUse" gradientTransform="translate(4112.72 3312.57) rotate(-179.581) scale(6017.3 3639.1)">
<stop offset="0.20681" stop-color="white" stop-opacity="0"/>
<stop offset="0.712952" stop-color="#A83E30"/>
<stop offset="0.86679" stop-color="#321126"/>
</radialGradient>
<linearGradient id="paint2_linear" x1="3812.72" y1="3451.43" x2="3812.72" y2="4314.29" gradientUnits="userSpaceOnUse">
<stop stop-color="#FFE6B4"/>
<stop offset="1" stop-color="white" stop-opacity="0"/>
</linearGradient>
<linearGradient id="paint3_linear" x1="3998.34" y1="2066.37" x2="3998.34" y2="4496.65" gradientUnits="userSpaceOnUse">
<stop stop-color="#FFEBB8"/>
<stop offset="1" stop-color="white" stop-opacity="0"/>
</linearGradient>
</defs>
</svg>
