<svg width="7994" height="5474" viewBox="0 0 7994 5474" fill="none" xmlns="http://www.w3.org/2000/svg">
<rect x="-6" y="-11.9995" width="8000" height="5473.99" fill="#FFC380"/>
<mask id="mask0" mask-type="alpha" maskUnits="userSpaceOnUse" x="-6" y="-1" width="8000" height="5475">
<rect x="-6" y="-0.277832" width="8000" height="5473.99" fill="#FFC380"/>
</mask>
<g mask="url(#mask0)">
<g filter="url(#filter0_d)">
<path d="M6610.85 916.852L7988.14 316.206V4137.45H140.52V2958.08L2062.86 2753.95L5673.12 916.852H6610.85Z" fill="#E17029"/>
</g>
<g filter="url(#filter1_d)">
<path d="M1887.04 1634.89L832.095 1679.01L-6 2338.18V4160.89H7706.82L6394 3548.7C5550.04 3030.14 4009.82 1839.6 3615.98 1679.01L3082.64 1756.22C2617.51 1755.52 1887.04 1634.89 1887.04 1634.89Z" fill="#A83E30"/>
<path d="M3264.33 2578.48L3615.98 1675.91L4020.37 1890.8L4360.3 2149.77L4120.01 4160.89H29.1648L187.407 4023.15L1898.76 3246.24L2689.97 3023.9L3264.33 2578.48Z" fill="#B74435"/>
</g>
<g filter="url(#filter2_d)">
<path d="M3123.67 4298.88H7413.78L5303.89 1588H5046.01L4430.63 2253.4L3123.67 4298.88Z" fill="#752A37"/>
<path d="M2977.15 3177.56L-6 4090.56V5083.97L4489.24 5075.18L4583.01 4311.2L4102.42 3953.86L4700.23 3584.19L4489.24 3177.56L5051.88 1594.16L3996.93 2228.75L2977.15 3177.56Z" fill="#6A1E2B"/>
</g>
<g filter="url(#filter3_d)">
<path d="M7152.83 2547.79L7994 2244.41V5485.44H5497.3H2766.16L3522.21 4430.49L6733.11 2547.79H7152.83Z" fill="#321126"/>
</g>
<path d="M3507.38 5099.56C3506.64 5074.37 3459.61 5139.88 3269.61 5027.03C3379.29 5049.18 3431.63 5029.15 3462.52 5018C3398.71 5024.72 3381.43 5008.19 3381.43 5008.19C3381.43 5008.19 3507.16 4989.47 3500.87 4966.77C3494.59 4944.06 3482.13 4992.41 3353.38 4957.22C3224.64 4922.03 3226.98 4874.17 3226.98 4874.17C3226.98 4874.17 3249.21 4871.62 3252.78 4860.98C3307.14 4881.34 3380.73 4876.12 3407.64 4867.01C3344.73 4865.52 3315.57 4846.47 3315.57 4846.47C3315.57 4846.47 3354.06 4833.53 3371.28 4816.94C3342.34 4824.5 3253.68 4801.61 3198.2 4729.46C3274.13 4732.08 3306.96 4712.87 3276.92 4696.45C3317.12 4702.47 3365.97 4685.45 3362.79 4678.78C3322.06 4683.39 3269.91 4676.18 3258.39 4665.16C3246.88 4654.14 3219.14 4627.18 3219.14 4627.18C3219.14 4627.18 3244.49 4635.29 3261.04 4632.19C3277.6 4629.06 3279.49 4623.11 3289.66 4625.85C3299.82 4628.6 3307.68 4624.93 3302.05 4616.74C3296.42 4608.58 3292.55 4604.32 3276.8 4598.92C3261.02 4593.51 3240.06 4580.92 3235.21 4556.79C3230.35 4532.67 3217.12 4532.21 3217.12 4532.21C3217.12 4532.21 3238.43 4417.49 3198.84 4412.34C3159.24 4407.2 3173.73 4474.14 3134.52 4497.32C3095.28 4520.49 3089.34 4526.39 3055.02 4525.03C3020.69 4523.67 3028.15 4547.57 3059.43 4553.61C3041.59 4558.45 2998.1 4550.78 2998.1 4550.78C2998.1 4550.78 3011.7 4560.66 3028.67 4565.2C3045.64 4569.72 3075.43 4570.94 3075.43 4570.94C3075.43 4570.94 3066.48 4589.66 3088.48 4596.64C3084.25 4605.8 3019.04 4618.3 3019.04 4618.3C3019.04 4618.3 3063.69 4602.18 3050.39 4593.18C3037.1 4584.18 3025.46 4591.44 3005.29 4592.56C2985.12 4593.68 2980.65 4592.34 2943.59 4585.38C2906.57 4578.42 2889.82 4572.1 2858.73 4556.5C2827.64 4540.93 2799.67 4513.38 2799.67 4513.38L2830.85 4515.68L2811.17 4499.83C2811.17 4499.83 2865.92 4505.38 2899.67 4504.7C2933.41 4504.01 2955.98 4496.63 2952.22 4486.09C2948.51 4475.58 2935.41 4475.02 2917.85 4471.3C2900.3 4467.58 2895.71 4459.38 2877.57 4453.64C2859.43 4447.91 2846.26 4452.37 2833.75 4441.86C2821.24 4431.33 2757.03 4405.27 2741.82 4381.62C2779.49 4390.16 2821.57 4379.35 2821.01 4369.79C2820.46 4360.24 2805.75 4366.72 2790.32 4364.76C2774.88 4362.79 2771.79 4350.23 2771.79 4350.23C2771.79 4350.23 2799.03 4357.89 2826.53 4354.53C2854.04 4351.17 2863.15 4334.24 2861.29 4330.89C2859.43 4327.53 2850.25 4327.88 2831.81 4327.83C2813.32 4327.78 2791.44 4320.84 2790.23 4309.7C2789.02 4298.57 2773.02 4283.27 2755.96 4278.33C2774.2 4276.09 2776.38 4266.51 2776.38 4266.51C2776.38 4266.51 2786.55 4278.41 2808.63 4276.78C2830.71 4275.16 2827.61 4257.07 2816.12 4249.47C2804.63 4241.87 2793.14 4234.27 2787.48 4213.32C2781.82 4192.38 2768.77 4183.17 2771.05 4169.21C2773.33 4155.25 2763.28 4098.22 2743.27 4098.07C2723.3 4097.93 2726.22 4120.96 2724.68 4126.57C2723.14 4132.18 2707.32 4143.73 2703.17 4161.74C2699.03 4179.75 2646.91 4220.58 2634.63 4232.74C2622.36 4244.91 2562.59 4236.09 2554.71 4262.23C2546.79 4288.39 2604.94 4266.24 2603.15 4277.18C2601.37 4288.12 2571 4296.04 2536.14 4297.98C2501.27 4299.92 2517.38 4305.14 2489.62 4308.29C2461.86 4311.45 2447.19 4326.88 2445.44 4334.01C2419.2 4329.66 2406.2 4322.14 2406.2 4322.14C2406.2 4322.14 2407.66 4327.94 2413.04 4332.31C2392.14 4332.29 2388.83 4328.45 2388.83 4328.45C2388.83 4328.45 2393.73 4342.87 2432.25 4346.49C2470.72 4350.12 2481.55 4359.95 2512.47 4359.87C2487.39 4365.1 2471.83 4376.85 2453.34 4376.8C2434.85 4376.75 2390.84 4377.32 2366.91 4390.24C2342.99 4403.16 2336.89 4394.01 2335.47 4404.76C2334 4415.52 2345.98 4410.97 2354.89 4413.82C2363.79 4416.69 2383.12 4424.59 2410.85 4427.17C2438.6 4429.72 2449.96 4425.13 2449.96 4425.13C2449.96 4425.13 2446.44 4441.1 2461.45 4445.7C2451.84 4458.04 2441.14 4458.86 2428.47 4458.43C2415.81 4458 2404.61 4461.84 2404.05 4468.84C2403.52 4475.85 2412.73 4480.64 2433.99 4482.02C2455.29 4483.4 2495.32 4481.03 2495.32 4481.03C2495.32 4481.03 2434.48 4526.25 2334.79 4538.37L2321.44 4533.8C2321.44 4533.8 2335.74 4527.01 2336.58 4519.06C2381.48 4519.67 2412.09 4510.23 2409.19 4500.05C2406.29 4489.87 2370.06 4503.23 2322.54 4465.86C2275.02 4428.49 2269.11 4414.68 2264.58 4406.12C2260.09 4397.54 2247.5 4393.88 2247.5 4393.88C2247.5 4393.88 2274.79 4393.64 2296.02 4391.6C2317.26 4389.56 2322.94 4379.91 2316.24 4373.48C2309.57 4367.05 2303.61 4367.24 2295.53 4366.71C2287.44 4366.19 2278.01 4358.44 2267.76 4357.2C2257.51 4355.96 2254.39 4351.48 2255.52 4345.84C2256.64 4340.21 2250.24 4336.51 2247.72 4336.47C2245.23 4336.44 2257.63 4325.82 2248.27 4320.65C2238.87 4315.48 2238.31 4314.87 2238.92 4312.62C2239.5 4310.36 2254.47 4305.04 2252.42 4298.05C2250.37 4291.06 2257.09 4291.78 2256.19 4284.58C2255.34 4277.38 2253.68 4274.85 2255.78 4266.27C2257.85 4257.7 2251.02 4253.81 2252.69 4246.36C2254.37 4238.9 2262.68 4208.85 2251.14 4207.12C2239.6 4205.38 2233.4 4215.7 2230.95 4226.38C2228.54 4237.08 2209.73 4259.02 2201.69 4266.35C2193.69 4273.68 2189.76 4282.29 2190.67 4286.62C2191.53 4290.96 2180.02 4296.21 2180.24 4301.67C2180.48 4307.11 2185.75 4308.32 2184.83 4313.97C2183.91 4319.62 2165.61 4327.3 2147.97 4328.14C2130.33 4329.01 2122.28 4324.18 2114.54 4328.4C2106.8 4332.62 2109.72 4342.67 2123.21 4347.69C2136.7 4352.71 2144.74 4357.79 2156.17 4357.38C2121.04 4372.11 2086.2 4376.71 2070.57 4370.85C2054.94 4364.99 2058.06 4371.03 2045.94 4368.55C2033.86 4366.05 2012.4 4361.09 2012.4 4361.09C2012.4 4361.09 2038.59 4384.35 2063.09 4390.24C2044.69 4395.75 2001.17 4393.79 2001.17 4393.79C2001.17 4393.79 2031.53 4401.18 2039.57 4406.27C2047.61 4411.35 2121.38 4411.69 2121.38 4411.69C2121.38 4411.69 2110.52 4419.75 2088.02 4425.73C2065.52 4431.7 2045.34 4436.68 2029.36 4439.85C2013.37 4443.01 1989.14 4444.86 1966.24 4447.94C1943.3 4451.02 1938.38 4442.33 1930.7 4441.08C1923.03 4439.82 1919.48 4443.01 1912.49 4439.32C1905.5 4435.64 1877.77 4434.78 1864.82 4428.81C1871.41 4449.63 1921.07 4479.49 1962.82 4487.15C2004.58 4494.8 2030.6 4491.35 2030.6 4491.35C2030.6 4491.35 2047.54 4504.44 2068.96 4505.07C2009.92 4531.92 1979.4 4540.51 1928.94 4540.68C1947.93 4524.49 1956.62 4518.77 1954.78 4516.07C1952.94 4513.37 1870.2 4533.18 1836.87 4531.31C1803.54 4529.44 1764.67 4525.49 1725.86 4512.7C1687.06 4499.92 1620.94 4487.34 1607.5 4469.6C1683.35 4491.93 1729.55 4481.78 1761.93 4483.87C1794.31 4485.97 1835.96 4472.94 1835.96 4472.94C1835.96 4472.94 1797.9 4466.77 1767.6 4465.93C1750.34 4440.83 1702.22 4432.26 1654.41 4413.47C1751.63 4446.91 1804.76 4430.34 1804.76 4430.34C1804.76 4430.34 1761.02 4411.5 1754.72 4391.67C1804.94 4395.78 1878.37 4360.81 1878.37 4360.81C1878.37 4360.81 1705.71 4332.98 1620.81 4274.15C1696.89 4281.37 1794.32 4268.82 1799.41 4237.7C1804.49 4206.61 1796.53 4232.95 1720.33 4221.16C1644.08 4209.37 1616.97 4197.34 1616.97 4197.34C1616.97 4197.34 1688.2 4200.8 1668.24 4172.65C1752.46 4191.25 1803.11 4187.09 1855.2 4163.03C1756.05 4163.47 1705.08 4141.89 1705.08 4141.89C1705.08 4141.89 1763.61 4145.11 1791.32 4125.75C1752.41 4119.24 1727.58 4115.34 1672.31 4108.9C1617.01 4102.45 1615.01 4092.62 1615.01 4092.62C1615.01 4092.62 1676.06 4084.18 1675.47 4069.28C1674.88 4054.38 1634.97 4065.09 1583.67 4022.94C1630.43 4044.64 1657.93 4035.76 1657.93 4035.76C1657.93 4035.76 1629.43 4013.73 1615.44 3999.11C1601.48 3984.49 1585.81 3972.81 1582.59 3955.46C1579.37 3938.12 1593.26 3931.02 1582.69 3921.57C1572.4 3912.22 1588.45 3891.93 1571.66 3890.84C1554.88 3889.76 1564.07 3900.26 1550.63 3915.77C1537.19 3931.27 1526.91 3938.61 1524.75 3955.61C1522.6 3972.6 1446.59 4018.74 1417.22 4057.6C1456.27 4052.12 1482.19 4034.37 1482.19 4034.37C1482.19 4034.37 1455.47 4066.18 1444.54 4077.46C1433.62 4088.75 1416.64 4092.43 1405.51 4103.13C1394.39 4113.83 1386.17 4112.15 1368.93 4115.62C1351.69 4119.07 1348.25 4123.62 1346.84 4128.49C1345.42 4133.35 1349.38 4140.83 1371.39 4143.22C1335.1 4152.11 1278.06 4163.85 1258.71 4169.07C1239.36 4174.28 1250.45 4184.34 1266.49 4188.24C1282.52 4192.15 1307.3 4198.14 1338.28 4195.55C1369.31 4193 1386.46 4188 1386.46 4188C1386.46 4188 1375.03 4195.06 1367.69 4204.7C1360.35 4214.32 1201.78 4250.53 1139.92 4250.91C1187.48 4267.7 1351.01 4260.58 1396.36 4244.45C1328.27 4303.28 1270.81 4304.7 1224.08 4312.55C1177.34 4320.37 1147.69 4312.74 1136.51 4320.02C1125.32 4327.31 1116.43 4365.01 1255.74 4374.6C1231.73 4393.62 1189.58 4384.61 1176.03 4395.16C1162.49 4405.7 1168.52 4424.37 1207.62 4429.77C1246.72 4435.17 1226.71 4446.44 1226.71 4446.44C1211.94 4457.93 1196.59 4471.62 1185.59 4473.75C1174.58 4475.88 1151.71 4462.79 1137.15 4459.27C1122.55 4455.74 1090.5 4451.35 1076.14 4433.93C1111.76 4436.76 1145.32 4426.81 1141.19 4417.02C1137.07 4407.21 1098.08 4404.95 1078.17 4391.3C1058.25 4377.65 1037.96 4369.11 1028.44 4351.99C1055.96 4359.2 1090.96 4345.48 1083.15 4335.69C1075.33 4325.9 1045.07 4330.38 1012.66 4305.62C1056.4 4313.87 1086.89 4297.8 1082.85 4290.06C1078.8 4282.31 1017.73 4282.24 992.903 4246.08C1014.25 4252.52 1049.12 4251.52 1050.21 4246.61C1051.31 4241.7 1022.56 4236.92 1005.96 4213.16C989.35 4189.4 1002.14 4176.33 988.354 4165.29C985.577 4158.93 996.25 4085.22 991.091 4085.07C985.932 4084.92 969.021 4119.89 968.284 4131C967.546 4142.12 970.286 4152.25 961.219 4160.8C952.196 4169.31 950.919 4177.13 949.968 4184.48C949.062 4191.8 935.962 4195.07 932.897 4200.37C929.832 4205.68 902.752 4207.71 902.648 4211.64C902.541 4215.59 920.005 4219.12 925.089 4221.51C930.173 4223.9 885.402 4236.99 858.426 4236.6C831.445 4236.24 838.424 4242.01 830.107 4241.13C821.79 4240.25 820.062 4237.38 818.484 4238.66C816.906 4239.94 814.707 4250.09 831.002 4250.63C847.296 4251.16 846.523 4259.19 859.393 4260.89C872.221 4262.58 885.933 4262.42 885.933 4262.42C885.933 4262.42 873.666 4272.27 863.374 4273.32C853.083 4274.38 836.275 4271.91 832.732 4276.84C829.189 4281.78 840.688 4290.08 856.843 4291.47C872.998 4292.85 887.068 4290.5 887.068 4290.5C887.068 4290.5 856.347 4304.66 834.773 4304.46C813.239 4304.27 781.708 4301.55 775.313 4305.41C768.954 4309.3 772.264 4315.7 796.916 4321.93C821.568 4328.17 821.474 4333.82 821.474 4333.82C821.474 4333.82 794.715 4333.63 792.3 4336.73C789.885 4339.84 794.584 4347.89 818.044 4349.74C841.503 4351.6 852.801 4347.69 852.801 4347.69C852.801 4347.69 822.267 4357.4 803.93 4364.29C785.592 4371.19 750.4 4367.53 739.869 4371.83C729.337 4376.13 710.642 4373.54 701.612 4373.47C692.622 4373.41 677.832 4380.18 694.771 4390.22C711.71 4400.26 755.112 4403.93 755.112 4403.93C755.112 4403.93 728.532 4419.39 756.722 4427.58C749.455 4440.33 687.623 4452.5 679.933 4452.86C672.243 4453.22 656.186 4450.98 646.97 4453.83C637.755 4456.68 632.146 4467.66 657.005 4474.4C681.86 4481.17 696.737 4497.24 733.291 4497.38C715.609 4505.34 654.929 4517.06 654.929 4517.06C654.929 4517.06 600.619 4491.56 577.631 4464.99C554.643 4438.41 531.896 4413.92 517.734 4403.38C577.708 4417.56 623.725 4420.2 653.92 4419.41C684.115 4418.63 703.133 4415.95 703.681 4412.59C704.225 4409.27 642.518 4399.09 633.772 4395.76C658.619 4389.13 656.538 4378.51 656.538 4378.51C656.538 4378.51 609.832 4383.39 567.301 4352.81C524.769 4322.24 475.175 4277.02 462.217 4238.55C516.489 4285.09 578.898 4309.49 607.645 4319.1C636.396 4328.68 699.593 4338.87 742.164 4328.59C671.289 4308.27 628.299 4280.51 628.299 4280.51C628.299 4280.51 701.433 4266.94 694.409 4234.54C645.78 4231.13 590.118 4215.69 559.058 4195.11C527.998 4174.53 522.946 4175.25 522.946 4175.25C522.946 4175.25 586.859 4155.42 573.829 4129.83C570.969 4124.74 533.898 4127.51 508.633 4114.87C483.368 4102.23 478.124 4102.59 468.012 4092.65C491.503 4097.62 534.888 4093.02 531.611 4078.05C528.338 4063.05 494.796 4059.18 481.116 4042.65C488.353 4036.94 489.32 4032.54 485.868 4028.54C499.735 4025.65 508.496 4012.14 507.682 4003.66C506.869 3995.19 493.647 3974.07 478.961 3960.39C464.275 3946.72 470.494 3875.15 462.6 3874.97C454.707 3874.8 459.797 3892.13 449.924 3900.78C440.052 3909.42 435.482 3922.17 431.963 3933.8C428.403 3945.44 420.577 3958.31 408.808 3965.11C397.039 3971.91 384.084 3977.59 381.564 3983.11C379.008 3988.61 353.051 3988.83 351.71 3995.26C350.369 4001.7 355.3 4010.1 360.407 4013.87C365.513 4017.65 378.743 4018.66 378.743 4018.66C378.743 4018.66 360.389 4032.26 331.88 4037.95C303.368 4043.66 290.351 4051.25 288.424 4056.44C286.497 4061.64 293.443 4069.13 309.074 4072.2C324.705 4075.27 325.144 4080.96 337.178 4082.44C349.215 4083.9 350.89 4075.43 359.795 4076C368.7 4076.58 375.141 4077.52 375.083 4079.39C375.067 4081.27 346.91 4086.33 342.074 4094.1C337.238 4101.87 315.061 4102.31 300.825 4104.16C286.594 4105.97 267.188 4102.66 262.662 4107.01C258.136 4111.35 226.1 4120.1 224.335 4125.83C222.57 4131.56 253.173 4133.36 259.727 4138.42C266.282 4143.49 309.325 4154.18 316.888 4154.85C324.409 4155.52 324.19 4156.86 324.051 4157.71C323.912 4158.56 301.512 4153.51 288.541 4161.07C275.566 4168.65 275.998 4175.91 253.696 4172.04C231.39 4168.19 224.146 4182.33 189.325 4183C154.504 4183.66 35.6988 4173.56 2.12357 4138.42C16.5111 4163.32 21.3963 4172.39 25.8848 4182.48C30.3733 4192.58 56.3573 4191.68 71.9715 4201.45C87.5858 4211.22 114.913 4232.06 129.119 4230.39C118.31 4236.4 50.8655 4240.27 18.9639 4227.38C32.4322 4242.68 73.8688 4250 84.4016 4255.85C94.9344 4261.69 136.292 4269.24 157.641 4266.5C178.991 4263.77 219.578 4266.13 219.578 4266.13C219.578 4266.13 223.711 4271.04 234.876 4270.23C229.362 4276.31 192.077 4283.94 169.307 4295.37C146.541 4306.78 41.4298 4324.48 2.12356 4319.1C11.5349 4331.81 24.9576 4361.03 57.9075 4364.96C90.8574 4368.89 146.552 4369.16 146.552 4369.16C146.552 4369.16 145.199 4385.06 101.15 4388.65C132.718 4403.57 209.349 4403.63 209.349 4403.63C209.349 4403.63 183.527 4406.08 147.765 4426.97C111.966 4447.84 35.5002 4446.77 16.2294 4456.84C-3.04567 4466.94 -58.6418 4476.23 -78.1349 4474.96C-97.5869 4473.7 -153.657 4475.73 -165.057 4470.12C-176.411 4464.48 -198.637 4472.59 -171.032 4496.54C-143.386 4520.5 -129.274 4524.49 -98.8644 4526.46C-68.4552 4528.42 2.54748 4530.44 2.54748 4530.44C2.54748 4530.44 -100.257 4560.11 -103.965 4565.29C-107.674 4570.48 -100.237 4585.12 -60.2214 4585.91C-20.2058 4586.7 66.3774 4578.64 97.1562 4563.37C91.9089 4577.97 106.264 4582.76 117.179 4583.73C128.094 4584.69 161.27 4579.88 197.719 4562.39C177.729 4579.4 97.0927 4629.76 25.8353 4647.83C-45.422 4665.91 -120.86 4666.16 -127.946 4676.03C-135.028 4685.87 -134.82 4701.35 -84.3067 4706.68C-33.7937 4712.01 2.12355 4716.05 2.12355 4716.05C2.12355 4716.05 -91.7487 4768.73 -149.55 4784.91C-207.393 4801.09 -270.71 4800.78 -289.705 4796.47C-308.656 4792.14 -318.748 4806.95 -296.337 4817.01C-273.922 4827.04 -257.402 4829.49 -250.366 4833.39C-243.372 4837.28 -207.591 4835.82 -185.618 4841.7C-163.645 4847.58 -84.4766 4837.94 -84.4766 4837.94C-84.4766 4837.94 -93.3598 4845.61 -83.6797 4853.12C-131.942 4867.52 -141.027 4889.62 -162.431 4893.71C-183.88 4897.82 -118.446 5262.73 -185.618 5485.44L1550.63 5485.44L3362.79 5485.44C3362.84 5485.39 3508.12 5124.74 3507.38 5099.56ZM517.882 4624.84C501.865 4612.46 500.705 4599.5 500.705 4599.5L552.859 4621.44C552.863 4621.41 533.814 4622.76 517.882 4624.84ZM603.968 4584.54L649.064 4589.52L626.54 4601.98L603.968 4584.54ZM679.053 4732.14C679.053 4732.14 644.767 4721.16 623.151 4698.12C666.009 4711.72 733.447 4710.42 733.447 4710.42L679.053 4732.14ZM1761.42 4619.23L1754.36 4602.3L1781.44 4587.05L1809.75 4609.51L1761.42 4619.23ZM2356.79 4677.87L2330.57 4657.61L2379.24 4660.76L2356.79 4677.87ZM2407.92 4630.67L2367.17 4614.11L2438.53 4618.72L2407.92 4630.67ZM2429.1 4581.53L2375.45 4563.63C2375.45 4563.63 2461.6 4568.17 2488.91 4561.69C2473.41 4570.99 2429.1 4581.53 2429.1 4581.53ZM2988.66 4678.37C2977.38 4680.38 2915.91 4682.24 2899.64 4698.03C2883.41 4713.83 2955.47 4734.3 2955.47 4734.3C2941.14 4745.05 2931.38 4764.68 2931.38 4764.68L2859.81 4721.22L2876.56 4722.31L2811.08 4674.78L2851.77 4686.7L2803.81 4642.36C2803.81 4642.36 2870.44 4646 2888.45 4656.08C2906.46 4666.19 2895.92 4630.46 2883.01 4622.4C2922.5 4631.48 2976 4628.42 2976 4628.42C2976 4628.42 2942.57 4642.4 2921.56 4650.66C2900.56 4658.93 2906.77 4667.57 2956.64 4666.68C3006.51 4665.78 3015.51 4664.31 3015.51 4664.31C3015.51 4664.31 2999.93 4676.36 2988.66 4678.37Z" fill="#321126"/>
</g>
<defs>
<filter id="filter0_d" x="136.52" y="309.206" width="7855.62" height="3829.25" filterUnits="userSpaceOnUse" color-interpolation-filters="sRGB">
<feFlood flood-opacity="0" result="BackgroundImageFix"/>
<feColorMatrix in="SourceAlpha" type="matrix" values="0 0 0 0 0 0 0 0 0 0 0 0 0 0 0 0 0 0 127 0"/>
<feOffset dy="-3"/>
<feGaussianBlur stdDeviation="2"/>
<feColorMatrix type="matrix" values="0 0 0 0 0 0 0 0 0 0 0 0 0 0 0 0 0 0 0.3 0"/>
<feBlend mode="normal" in2="BackgroundImageFix" result="effect1_dropShadow"/>
<feBlend mode="normal" in="SourceGraphic" in2="effect1_dropShadow" result="shape"/>
</filter>
<filter id="filter1_d" x="-10" y="1627.89" width="7720.82" height="2534.01" filterUnits="userSpaceOnUse" color-interpolation-filters="sRGB">
<feFlood flood-opacity="0" result="BackgroundImageFix"/>
<feColorMatrix in="SourceAlpha" type="matrix" values="0 0 0 0 0 0 0 0 0 0 0 0 0 0 0 0 0 0 127 0"/>
<feOffset dy="-3"/>
<feGaussianBlur stdDeviation="2"/>
<feColorMatrix type="matrix" values="0 0 0 0 0 0 0 0 0 0 0 0 0 0 0 0 0 0 0.3 0"/>
<feBlend mode="normal" in2="BackgroundImageFix" result="effect1_dropShadow"/>
<feBlend mode="normal" in="SourceGraphic" in2="effect1_dropShadow" result="shape"/>
</filter>
<filter id="filter2_d" x="-10" y="1581" width="7427.78" height="3503.97" filterUnits="userSpaceOnUse" color-interpolation-filters="sRGB">
<feFlood flood-opacity="0" result="BackgroundImageFix"/>
<feColorMatrix in="SourceAlpha" type="matrix" values="0 0 0 0 0 0 0 0 0 0 0 0 0 0 0 0 0 0 127 0"/>
<feOffset dy="-3"/>
<feGaussianBlur stdDeviation="2"/>
<feColorMatrix type="matrix" values="0 0 0 0 0 0 0 0 0 0 0 0 0 0 0 0 0 0 0.3 0"/>
<feBlend mode="normal" in2="BackgroundImageFix" result="effect1_dropShadow"/>
<feBlend mode="normal" in="SourceGraphic" in2="effect1_dropShadow" result="shape"/>
</filter>
<filter id="filter3_d" x="2762.16" y="2237.41" width="5235.84" height="3249.03" filterUnits="userSpaceOnUse" color-interpolation-filters="sRGB">
<feFlood flood-opacity="0" result="BackgroundImageFix"/>
<feColorMatrix in="SourceAlpha" type="matrix" values="0 0 0 0 0 0 0 0 0 0 0 0 0 0 0 0 0 0 127 0"/>
<feOffset dy="-3"/>
<feGaussianBlur stdDeviation="2"/>
<feColorMatrix type="matrix" values="0 0 0 0 0 0 0 0 0 0 0 0 0 0 0 0 0 0 0.3 0"/>
<feBlend mode="normal" in2="BackgroundImageFix" result="effect1_dropShadow"/>
<feBlend mode="normal" in="SourceGraphic" in2="effect1_dropShadow" result="shape"/>
</filter>
</defs>
</svg>
