<svg width="800" height="771" viewBox="0 0 800 771" fill="none" xmlns="http://www.w3.org/2000/svg">
<path d="M81.4557 235.492C198.184 -1.44053 412.959 -13.3172 484.607 84.4607C519.609 132.227 519.802 156.683 543.545 268.683C585.944 388.683 682.061 308.626 735.185 442.683C788.31 576.739 541.404 709.646 359.973 694.038C178.543 678.43 -64.455 531.657 81.4557 235.492Z" fill="#321126"/>
<path d="M81.4557 235.492C198.184 -1.44053 412.959 -13.3172 484.607 84.4607C519.609 132.227 519.802 156.683 543.545 268.683C585.944 388.683 682.061 308.626 735.185 442.683C788.31 576.739 541.404 709.646 359.973 694.038C178.543 678.43 -64.455 531.657 81.4557 235.492Z" fill="url(#paint0_radial)"/>
<path d="M562.201 247.683C524.212 175.683 588.751 190.683 603.751 247.683C616.12 294.683 681.764 287.683 675.828 316.683C671.037 340.094 609.687 337.683 562.201 247.683Z" fill="#61232A"/>
<defs>
<radialGradient id="paint0_radial" cx="0" cy="0" r="1" gradientUnits="userSpaceOnUse" gradientTransform="translate(628.342 178.683) rotate(74.0842) scale(235.009 234.581)">
<stop stop-color="#A63E30"/>
<stop offset="1" stop-color="#321126"/>
</radialGradient>
</defs>
</svg>
