<svg width="121" height="225" viewBox="0 0 121 225" fill="none" xmlns="http://www.w3.org/2000/svg">
<g filter="url(#filter0_d)">
<path d="M88.3348 161.893C96.5474 161.727 95.1534 133.134 93.4298 118.858L88.0595 118.893L88.3348 161.893Z" fill="#009EE8"/>
<path d="M88.3348 161.893C96.5474 161.727 95.1534 133.134 93.4298 118.858L88.0595 118.893L88.3348 161.893Z" fill="url(#paint0_linear)"/>
<path d="M27.8402 162.28L37.4959 116.104L48.5722 119.145L38.5998 165.182L27.8402 162.28Z" fill="#009EE8"/>
<path d="M27.8402 162.28L37.4959 116.104L48.5722 119.145L38.5998 165.182L27.8402 162.28Z" fill="url(#paint1_linear)"/>
<path d="M83.4872 218.93L86.4918 170.109L45.8862 168.388L45.101 218.468C51.8176 221.481 73.4904 220.031 83.4872 218.93Z" fill="#009EE8"/>
<path d="M83.4872 218.93L86.4918 170.109L45.8862 168.388L45.101 218.468C51.8176 221.481 73.4904 220.031 83.4872 218.93Z" fill="url(#paint2_linear)"/>
<path d="M90.2891 171.075L89.9596 119.588L41.4692 119.898L41.0008 170.117C56.7317 179.749 80.4142 174.769 90.2891 171.075Z" fill="#009EE8"/>
<path d="M90.2891 171.075L89.9596 119.588L41.4692 119.898L41.0008 170.117C56.7317 179.749 80.4142 174.769 90.2891 171.075Z" fill="url(#paint3_linear)"/>
<path d="M94.3938 121.398C101.061 116.716 83.6079 106.143 74.0478 101.442C73.2532 100.692 68.887 99.6641 57.779 101.546C46.671 103.428 34.8913 112.254 30.39 116.432L35.2991 118.381C33.811 122.804 40.1691 122.452 43.5342 121.724C43.4397 126.703 48.9812 125.461 51.7638 124.217C53.1799 128.282 58.4648 126.437 60.9303 125.007C63.7363 129.063 68.4205 127.128 70.4118 125.654C75.3608 128.904 78.9994 126.495 80.2001 124.884C86.4033 126.655 88.1406 123.324 88.2338 121.437C89.8866 123.011 93.0292 122.067 94.3938 121.398Z" fill="#009EE8"/>
<path d="M94.3938 121.398C101.061 116.716 83.6079 106.143 74.0478 101.442C73.2532 100.692 68.887 99.6641 57.779 101.546C46.671 103.428 34.8913 112.254 30.39 116.432L35.2991 118.381C33.811 122.804 40.1691 122.452 43.5342 121.724C43.4397 126.703 48.9812 125.461 51.7638 124.217C53.1799 128.282 58.4648 126.437 60.9303 125.007C63.7363 129.063 68.4205 127.128 70.4118 125.654C75.3608 128.904 78.9994 126.495 80.2001 124.884C86.4033 126.655 88.1406 123.324 88.2338 121.437C89.8866 123.011 93.0292 122.067 94.3938 121.398Z" fill="url(#paint4_linear)"/>
<path d="M108.364 82.9745L108.225 61.3322L106.488 61.3433L106.626 82.9857C107.393 84.3388 101.791 84.3369 98.8938 84.1668C98.5277 86.2062 102.549 87.6328 104.605 88.0911C103.83 90.3123 103.164 94.8055 106.703 95.0092C110.243 95.2129 109.833 90.4625 109.186 88.0618C114.566 89.442 117.352 80.5122 115.314 82.9301C113.683 84.8643 110.001 83.7657 108.364 82.9745Z" fill="#009EE8"/>
<path d="M22.4368 81.5399L22.2983 59.9026L24.0294 59.8915L24.1679 81.5288C23.4212 82.8913 29.0025 82.8179 31.8865 82.6108C32.2772 84.6449 28.2892 86.1224 26.2463 86.6069C27.0474 88.8174 27.7686 93.3007 24.2448 93.5496C20.7211 93.7984 21.0684 89.0442 21.6825 86.6361C16.3408 88.0845 13.451 79.1932 15.5123 81.5842C17.1613 83.4971 20.8157 82.3517 22.4368 81.5399Z" fill="#009EE8"/>
<path d="M45.4318 97.3813C33.9106 93.9469 33.7316 70.9098 35.0822 59.8206L44.0853 59.7629L45.4318 97.3813Z" fill="#009EE8"/>
<path d="M82.3973 97.9935C92.3805 98.0427 96.6165 73.808 97.4867 61.6845L90.5306 60.7388L82.3973 97.9935Z" fill="#009EE8"/>
<path d="M92.8871 58.743C76.344 48.8999 42.441 34.8488 39.1735 57.3893C38.6688 60.8705 38.2715 64.1762 38.0176 67.2986C37.9935 65.8345 37.0009 63.4515 33.2239 65.6318C28.5027 68.3571 31.459 80.7787 38.2439 82.2913C40.2396 95.2199 48.0758 102.613 67.1097 103.325C80.7927 103.836 87.6779 93.5833 90.8043 81.9549C94.2247 80.6128 100.647 76.6581 98.9715 71.5764C97.2962 66.4948 94.2564 67.0379 92.946 67.9446C93.1276 64.5793 93.0807 61.4277 92.8871 58.743Z" fill="#009EE8"/>
<path d="M92.8871 58.743C76.344 48.8999 42.441 34.8488 39.1735 57.3893C38.6688 60.8705 38.2715 64.1762 38.0176 67.2986C37.9935 65.8345 37.0009 63.4515 33.2239 65.6318C28.5027 68.3571 31.459 80.7787 38.2439 82.2913C40.2396 95.2199 48.0758 102.613 67.1097 103.325C80.7927 103.836 87.6779 93.5833 90.8043 81.9549C94.2247 80.6128 100.647 76.6581 98.9715 71.5764C97.2962 66.4948 94.2564 67.0379 92.946 67.9446C93.1276 64.5793 93.0807 61.4277 92.8871 58.743Z" fill="url(#paint5_linear)"/>
<path d="M104.563 32.075C110.666 37.9204 107.187 47.1467 104.684 51.0291C58.1764 40.2933 36.1957 61.0864 28.2367 51.5184C21.8695 43.864 27.8194 35.6782 31.5903 32.542C31.1341 40.2401 37.545 41.557 40.8075 41.2532C39.4772 30.8507 46.4999 25.7511 50.1776 24.5016C46.795 38.9516 65.7363 36.85 59.0517 28.9713C53.7041 22.6684 56.7523 15.2178 58.9449 12.2804L64.3514 17.9039L70.8983 4.28238L79.1986 17.8089L82.0055 12.1328C83.9099 13.5351 87.6636 17.585 87.4427 22.5656C87.1667 28.7914 77.0796 32.2509 84.6847 35.88C90.7688 38.7833 91.5989 30.2719 91.2534 25.6532C98.0812 26.2885 97.5403 37.2123 96.4164 42.5948C100.456 41.8899 103.53 35.2879 104.563 32.075Z" fill="#009EE8"/>
<path d="M104.563 32.075C110.666 37.9204 107.187 47.1467 104.684 51.0291C58.1764 40.2933 36.1957 61.0864 28.2367 51.5184C21.8695 43.864 27.8194 35.6782 31.5903 32.542C31.1341 40.2401 37.545 41.557 40.8075 41.2532C39.4772 30.8507 46.4999 25.7511 50.1776 24.5016C46.795 38.9516 65.7363 36.85 59.0517 28.9713C53.7041 22.6684 56.7523 15.2178 58.9449 12.2804L64.3514 17.9039L70.8983 4.28238L79.1986 17.8089L82.0055 12.1328C83.9099 13.5351 87.6636 17.585 87.4427 22.5656C87.1667 28.7914 77.0796 32.2509 84.6847 35.88C90.7688 38.7833 91.5989 30.2719 91.2534 25.6532C98.0812 26.2885 97.5403 37.2123 96.4164 42.5948C100.456 41.8899 103.53 35.2879 104.563 32.075Z" fill="url(#paint6_linear)"/>
<path d="M77.5461 55.7294C124.679 75.3446 122.78 48.4615 115.939 32.568C121.668 59.0117 88.0169 46.4207 70.475 36.8197C71.3126 36.06 67.1893 36.7842 43.9957 45.7594C20.8021 54.7346 12.1645 41.1537 10.7449 33.2413C0.243363 70.6526 45.6675 60.1771 58.9081 55.8487C69.5006 52.386 75.747 54.3264 77.5461 55.7294Z" fill="#009EE8"/>
<path d="M77.5461 55.7294C124.679 75.3446 122.78 48.4615 115.939 32.568C121.668 59.0117 88.0169 46.4207 70.475 36.8197C71.3126 36.06 67.1893 36.7842 43.9957 45.7594C20.8021 54.7346 12.1645 41.1537 10.7449 33.2413C0.243363 70.6526 45.6675 60.1771 58.9081 55.8487C69.5006 52.386 75.747 54.3264 77.5461 55.7294Z" fill="url(#paint7_linear)"/>
<ellipse rx="1.65814" ry="1.62634" transform="matrix(-0.999979 0.00640025 0.00640025 0.999979 93.8912 79.884)" fill="#009EE8"/>
<ellipse rx="1.65814" ry="1.62634" transform="matrix(-0.999979 0.00640025 0.00640025 0.999979 93.8912 79.884)" fill="url(#paint8_linear)"/>
<ellipse rx="1.65814" ry="1.62634" transform="matrix(-0.999979 0.00640025 0.00640025 0.999979 93.8912 79.884)" fill="url(#paint9_linear)"/>
<ellipse rx="1.65814" ry="1.62634" transform="matrix(-0.999979 0.00640025 0.00640025 0.999979 93.9123 83.1369)" fill="#009EE8"/>
<ellipse rx="1.65814" ry="1.62634" transform="matrix(-0.999979 0.00640025 0.00640025 0.999979 93.9123 83.1369)" fill="url(#paint10_linear)"/>
<ellipse rx="1.65814" ry="1.62634" transform="matrix(-0.999979 0.00640025 0.00640025 0.999979 93.9123 83.1369)" fill="url(#paint11_linear)"/>
<ellipse rx="1.65814" ry="1.62634" transform="matrix(-0.999979 0.00640025 0.00640025 0.999979 93.9956 96.1513)" fill="#009EE8"/>
<ellipse rx="1.65814" ry="1.62634" transform="matrix(-0.999979 0.00640025 0.00640025 0.999979 93.9956 96.1513)" fill="url(#paint12_linear)"/>
<ellipse rx="1.65814" ry="1.62634" transform="matrix(-0.999979 0.00640025 0.00640025 0.999979 93.9956 96.1513)" fill="url(#paint13_linear)"/>
<ellipse rx="1.65814" ry="1.62634" transform="matrix(-0.999979 0.00640025 0.00640025 0.999979 93.9748 92.8979)" fill="#009EE8"/>
<ellipse rx="1.65814" ry="1.62634" transform="matrix(-0.999979 0.00640025 0.00640025 0.999979 93.9748 92.8979)" fill="url(#paint14_linear)"/>
<ellipse rx="1.65814" ry="1.62634" transform="matrix(-0.999979 0.00640025 0.00640025 0.999979 93.9748 92.8979)" fill="url(#paint15_linear)"/>
<ellipse rx="1.65814" ry="1.62634" transform="matrix(-0.999979 0.00640025 0.00640025 0.999979 93.954 89.6445)" fill="#009EE8"/>
<ellipse rx="1.65814" ry="1.62634" transform="matrix(-0.999979 0.00640025 0.00640025 0.999979 93.954 89.6445)" fill="url(#paint16_linear)"/>
<ellipse rx="1.65814" ry="1.62634" transform="matrix(-0.999979 0.00640025 0.00640025 0.999979 93.954 89.6445)" fill="url(#paint17_linear)"/>
<ellipse rx="1.65814" ry="1.62634" transform="matrix(-0.999979 0.00640025 0.00640025 0.999979 93.9332 86.3911)" fill="#009EE8"/>
<ellipse rx="1.65814" ry="1.62634" transform="matrix(-0.999979 0.00640025 0.00640025 0.999979 93.9332 86.3911)" fill="url(#paint18_linear)"/>
<ellipse rx="1.65814" ry="1.62634" transform="matrix(-0.999979 0.00640025 0.00640025 0.999979 93.9332 86.3911)" fill="url(#paint19_linear)"/>
<ellipse rx="1.65814" ry="1.62634" transform="matrix(-0.999979 0.00640025 0.00640025 0.999979 34.6615 80.4047)" fill="#009EE8"/>
<ellipse rx="1.65814" ry="1.62634" transform="matrix(-0.999979 0.00640025 0.00640025 0.999979 34.6615 80.4047)" fill="url(#paint20_linear)"/>
<ellipse rx="1.65814" ry="1.62634" transform="matrix(-0.999979 0.00640025 0.00640025 0.999979 34.6615 80.4047)" fill="url(#paint21_linear)"/>
<ellipse rx="1.65814" ry="1.62634" transform="matrix(-0.999979 0.00640025 0.00640025 0.999979 34.6823 83.6572)" fill="#009EE8"/>
<ellipse rx="1.65814" ry="1.62634" transform="matrix(-0.999979 0.00640025 0.00640025 0.999979 34.6823 83.6572)" fill="url(#paint22_linear)"/>
<ellipse rx="1.65814" ry="1.62634" transform="matrix(-0.999979 0.00640025 0.00640025 0.999979 34.6823 83.6572)" fill="url(#paint23_linear)"/>
<ellipse rx="1.65814" ry="1.62634" transform="matrix(-0.999979 0.00640025 0.00640025 0.999979 34.7656 96.6718)" fill="#009EE8"/>
<ellipse rx="1.65814" ry="1.62634" transform="matrix(-0.999979 0.00640025 0.00640025 0.999979 34.7656 96.6718)" fill="url(#paint24_linear)"/>
<ellipse rx="1.65814" ry="1.62634" transform="matrix(-0.999979 0.00640025 0.00640025 0.999979 34.7656 96.6718)" fill="url(#paint25_linear)"/>
<ellipse rx="1.65814" ry="1.62634" transform="matrix(-0.999979 0.00640025 0.00640025 0.999979 34.7448 93.4184)" fill="#009EE8"/>
<ellipse rx="1.65814" ry="1.62634" transform="matrix(-0.999979 0.00640025 0.00640025 0.999979 34.7448 93.4184)" fill="url(#paint26_linear)"/>
<ellipse rx="1.65814" ry="1.62634" transform="matrix(-0.999979 0.00640025 0.00640025 0.999979 34.7448 93.4184)" fill="url(#paint27_linear)"/>
<ellipse rx="1.65814" ry="1.62634" transform="matrix(-0.999979 0.00640025 0.00640025 0.999979 34.724 90.165)" fill="#009EE8"/>
<ellipse rx="1.65814" ry="1.62634" transform="matrix(-0.999979 0.00640025 0.00640025 0.999979 34.724 90.165)" fill="url(#paint28_linear)"/>
<ellipse rx="1.65814" ry="1.62634" transform="matrix(-0.999979 0.00640025 0.00640025 0.999979 34.724 90.165)" fill="url(#paint29_linear)"/>
<ellipse rx="1.65814" ry="1.62634" transform="matrix(-0.999979 0.00640025 0.00640025 0.999979 34.7031 86.9116)" fill="#009EE8"/>
<ellipse rx="1.65814" ry="1.62634" transform="matrix(-0.999979 0.00640025 0.00640025 0.999979 34.7031 86.9116)" fill="url(#paint30_linear)"/>
<ellipse rx="1.65814" ry="1.62634" transform="matrix(-0.999979 0.00640025 0.00640025 0.999979 34.7031 86.9116)" fill="url(#paint31_linear)"/>
<path d="M41.4767 145.784L87.5979 145.489L87.6712 156.946L70.6127 157.055C75.5849 163.926 75.9648 178.852 75.5332 185.456L60.0541 185.555L59.8722 157.124L41.5501 157.241L41.4767 145.784Z" fill="#009EE8"/>
</g>
<defs>
<filter id="filter0_d" x="0.118896" y="0.0466309" width="119.545" height="224.318" filterUnits="userSpaceOnUse" color-interpolation-filters="sRGB">
<feFlood flood-opacity="0" result="BackgroundImageFix"/>
<feColorMatrix in="SourceAlpha" type="matrix" values="0 0 0 0 0 0 0 0 0 0 0 0 0 0 0 0 0 0 127 0"/>
<feOffset dx="-5"/>
<feGaussianBlur stdDeviation="2"/>
<feColorMatrix type="matrix" values="0 0 0 0 0 0 0 0 0 0 0 0 0 0 0 0 0 0 0.25 0"/>
<feBlend mode="normal" in2="BackgroundImageFix" result="effect1_dropShadow"/>
<feBlend mode="normal" in="SourceGraphic" in2="effect1_dropShadow" result="shape"/>
</filter>
<linearGradient id="paint0_linear" x1="61.0696" y1="115.953" x2="61.3837" y2="165.036" gradientUnits="userSpaceOnUse">
<stop stop-color="#51C8FF"/>
<stop offset="1" stop-color="#C3ECFF"/>
</linearGradient>
<linearGradient id="paint1_linear" x1="61.0696" y1="115.953" x2="61.3837" y2="165.036" gradientUnits="userSpaceOnUse">
<stop stop-color="#51C8FF"/>
<stop offset="1" stop-color="#C3ECFF"/>
</linearGradient>
<linearGradient id="paint2_linear" x1="65.6299" y1="168.262" x2="65.9625" y2="220.231" gradientUnits="userSpaceOnUse">
<stop stop-color="#51C8FF"/>
<stop offset="1" stop-color="#C3ECFF"/>
</linearGradient>
<linearGradient id="paint3_linear" x1="65.3195" y1="119.745" x2="65.6776" y2="175.692" gradientUnits="userSpaceOnUse">
<stop stop-color="#51C8FF"/>
<stop offset="1" stop-color="#C3ECFF"/>
</linearGradient>
<linearGradient id="paint4_linear" x1="63.0228" y1="100.512" x2="63.1952" y2="127.445" gradientUnits="userSpaceOnUse">
<stop stop-color="#51C8FF"/>
<stop offset="1" stop-color="#C3ECFF"/>
</linearGradient>
<linearGradient id="paint5_linear" x1="65.2282" y1="45.2222" x2="65.6003" y2="103.36" gradientUnits="userSpaceOnUse">
<stop stop-color="#63CEFF"/>
<stop offset="1" stop-color="#CDEFFF"/>
</linearGradient>
<linearGradient id="paint6_linear" x1="66.4557" y1="4.31082" x2="66.7731" y2="53.9062" gradientUnits="userSpaceOnUse">
<stop stop-color="#51C8FF"/>
<stop offset="1" stop-color="#C3ECFF"/>
</linearGradient>
<linearGradient id="paint7_linear" x1="64.2956" y1="32.8986" x2="64.4874" y2="62.8764" gradientUnits="userSpaceOnUse">
<stop stop-color="#51C8FF"/>
<stop offset="1" stop-color="#C3ECFF"/>
</linearGradient>
<linearGradient id="paint8_linear" x1="1.65814" y1="0" x2="1.65814" y2="3.25268" gradientUnits="userSpaceOnUse">
<stop stop-color="#51C8FF"/>
<stop offset="1" stop-color="#C3ECFF"/>
</linearGradient>
<linearGradient id="paint9_linear" x1="1.65814" y1="0" x2="1.65814" y2="3.25268" gradientUnits="userSpaceOnUse">
<stop stop-color="#51C8FF"/>
<stop offset="1" stop-color="#C3ECFF"/>
</linearGradient>
<linearGradient id="paint10_linear" x1="1.65814" y1="0" x2="1.65814" y2="3.25268" gradientUnits="userSpaceOnUse">
<stop stop-color="#51C8FF"/>
<stop offset="1" stop-color="#C3ECFF"/>
</linearGradient>
<linearGradient id="paint11_linear" x1="1.65814" y1="0" x2="1.65814" y2="3.25268" gradientUnits="userSpaceOnUse">
<stop stop-color="#51C8FF"/>
<stop offset="1" stop-color="#C3ECFF"/>
</linearGradient>
<linearGradient id="paint12_linear" x1="1.65814" y1="0" x2="1.65814" y2="3.25268" gradientUnits="userSpaceOnUse">
<stop stop-color="#51C8FF"/>
<stop offset="1" stop-color="#C3ECFF"/>
</linearGradient>
<linearGradient id="paint13_linear" x1="1.65814" y1="0" x2="1.65814" y2="3.25268" gradientUnits="userSpaceOnUse">
<stop stop-color="#51C8FF"/>
<stop offset="1" stop-color="#C3ECFF"/>
</linearGradient>
<linearGradient id="paint14_linear" x1="1.65814" y1="0" x2="1.65814" y2="3.25268" gradientUnits="userSpaceOnUse">
<stop stop-color="#51C8FF"/>
<stop offset="1" stop-color="#C3ECFF"/>
</linearGradient>
<linearGradient id="paint15_linear" x1="1.65814" y1="0" x2="1.65814" y2="3.25268" gradientUnits="userSpaceOnUse">
<stop stop-color="#51C8FF"/>
<stop offset="1" stop-color="#C3ECFF"/>
</linearGradient>
<linearGradient id="paint16_linear" x1="1.65814" y1="0" x2="1.65814" y2="3.25268" gradientUnits="userSpaceOnUse">
<stop stop-color="#51C8FF"/>
<stop offset="1" stop-color="#C3ECFF"/>
</linearGradient>
<linearGradient id="paint17_linear" x1="1.65814" y1="0" x2="1.65814" y2="3.25268" gradientUnits="userSpaceOnUse">
<stop stop-color="#51C8FF"/>
<stop offset="1" stop-color="#C3ECFF"/>
</linearGradient>
<linearGradient id="paint18_linear" x1="1.65814" y1="0" x2="1.65814" y2="3.25268" gradientUnits="userSpaceOnUse">
<stop stop-color="#51C8FF"/>
<stop offset="1" stop-color="#C3ECFF"/>
</linearGradient>
<linearGradient id="paint19_linear" x1="1.65814" y1="0" x2="1.65814" y2="3.25268" gradientUnits="userSpaceOnUse">
<stop stop-color="#51C8FF"/>
<stop offset="1" stop-color="#C3ECFF"/>
</linearGradient>
<linearGradient id="paint20_linear" x1="1.65814" y1="0" x2="1.65814" y2="3.25268" gradientUnits="userSpaceOnUse">
<stop stop-color="#51C8FF"/>
<stop offset="1" stop-color="#C3ECFF"/>
</linearGradient>
<linearGradient id="paint21_linear" x1="1.65814" y1="0" x2="1.65814" y2="3.25268" gradientUnits="userSpaceOnUse">
<stop stop-color="#51C8FF"/>
<stop offset="1" stop-color="#C3ECFF"/>
</linearGradient>
<linearGradient id="paint22_linear" x1="1.65814" y1="0" x2="1.65814" y2="3.25268" gradientUnits="userSpaceOnUse">
<stop stop-color="#51C8FF"/>
<stop offset="1" stop-color="#C3ECFF"/>
</linearGradient>
<linearGradient id="paint23_linear" x1="1.65814" y1="0" x2="1.65814" y2="3.25268" gradientUnits="userSpaceOnUse">
<stop stop-color="#51C8FF"/>
<stop offset="1" stop-color="#C3ECFF"/>
</linearGradient>
<linearGradient id="paint24_linear" x1="1.65814" y1="0" x2="1.65814" y2="3.25268" gradientUnits="userSpaceOnUse">
<stop stop-color="#51C8FF"/>
<stop offset="1" stop-color="#C3ECFF"/>
</linearGradient>
<linearGradient id="paint25_linear" x1="1.65814" y1="0" x2="1.65814" y2="3.25268" gradientUnits="userSpaceOnUse">
<stop stop-color="#51C8FF"/>
<stop offset="1" stop-color="#C3ECFF"/>
</linearGradient>
<linearGradient id="paint26_linear" x1="1.65814" y1="0" x2="1.65814" y2="3.25268" gradientUnits="userSpaceOnUse">
<stop stop-color="#51C8FF"/>
<stop offset="1" stop-color="#C3ECFF"/>
</linearGradient>
<linearGradient id="paint27_linear" x1="1.65814" y1="0" x2="1.65814" y2="3.25268" gradientUnits="userSpaceOnUse">
<stop stop-color="#51C8FF"/>
<stop offset="1" stop-color="#C3ECFF"/>
</linearGradient>
<linearGradient id="paint28_linear" x1="1.65814" y1="0" x2="1.65814" y2="3.25268" gradientUnits="userSpaceOnUse">
<stop stop-color="#51C8FF"/>
<stop offset="1" stop-color="#C3ECFF"/>
</linearGradient>
<linearGradient id="paint29_linear" x1="1.65814" y1="0" x2="1.65814" y2="3.25268" gradientUnits="userSpaceOnUse">
<stop stop-color="#51C8FF"/>
<stop offset="1" stop-color="#C3ECFF"/>
</linearGradient>
<linearGradient id="paint30_linear" x1="1.65814" y1="0" x2="1.65814" y2="3.25268" gradientUnits="userSpaceOnUse">
<stop stop-color="#51C8FF"/>
<stop offset="1" stop-color="#C3ECFF"/>
</linearGradient>
<linearGradient id="paint31_linear" x1="1.65814" y1="0" x2="1.65814" y2="3.25268" gradientUnits="userSpaceOnUse">
<stop stop-color="#51C8FF"/>
<stop offset="1" stop-color="#C3ECFF"/>
</linearGradient>
</defs>
</svg>
