<svg width="97" height="237" viewBox="0 0 97 237" fill="none" xmlns="http://www.w3.org/2000/svg">
<g filter="url(#filter0_d)">
<path d="M68.694 232.544L63.0942 167.847L20.9399 166.954L19.6014 230.117L35.627 230.457L42.4594 187.643L49.1845 232.13L68.694 232.544Z" fill="#009EE8"/>
<path d="M68.694 232.544L63.0942 167.847L20.9399 166.954L19.6014 230.117L35.627 230.457L42.4594 187.643L49.1845 232.13L68.694 232.544Z" fill="url(#paint0_linear)"/>
<path d="M80.4191 123.315C77.0401 111.714 61.331 108.499 53.8989 108.341C43.1327 103.235 30.5651 107.477 25.627 110.237C13.1181 108.419 7.4636 139.507 6.19994 155.279L17.1427 165.211L13.569 202.274L71.0521 203.492L66.2236 168.191L69.2552 140.263L72.2145 148.64L69.0263 151.067L68.7034 166.304L85.9796 156.969C85.534 150.585 83.798 134.917 80.4191 123.315Z" fill="#009EE8"/>
<path d="M80.4191 123.315C77.0401 111.714 61.331 108.499 53.8989 108.341C43.1327 103.235 30.5651 107.477 25.627 110.237C13.1181 108.419 7.4636 139.507 6.19994 155.279L17.1427 165.211L13.569 202.274L71.0521 203.492L66.2236 168.191L69.2552 140.263L72.2145 148.64L69.0263 151.067L68.7034 166.304L85.9796 156.969C85.534 150.585 83.798 134.917 80.4191 123.315Z" fill="url(#paint1_linear)"/>
<path d="M77.8747 78.916L76.4674 63.0883L67.1081 60.6727L66.7265 78.6798L77.8747 78.916Z" fill="#009EE8"/>
<path d="M12.3436 79.1902L19.3796 59.6612L11.0185 59.4841L6.45627 77.4025L12.3436 79.1902Z" fill="#009EE8"/>
<path d="M71.9638 78.2367L69.116 64.5957C69.2992 55.9523 33.031 56.9021 14.874 58.4574L12.7387 76.9816C9.7246 74.4788 7.57363 74.0082 6.87491 74.0858C-1.07446 80.7908 5.71693 84.8704 10.1063 86.072C11.2134 94.133 18.8625 110.37 40.6016 110.831C62.3407 111.292 71.5763 96.5208 73.4767 89.0779C79.0696 88.3095 82.1876 83.7193 83.0475 81.5203C82.7484 69.3191 75.5337 74.2474 71.9638 78.2367Z" fill="#009EE8"/>
<path d="M71.9638 78.2367L69.116 64.5957C69.2992 55.9523 33.031 56.9021 14.874 58.4574L12.7387 76.9816C9.7246 74.4788 7.57363 74.0082 6.87491 74.0858C-1.07446 80.7908 5.71693 84.8704 10.1063 86.072C11.2134 94.133 18.8625 110.37 40.6016 110.831C62.3407 111.292 71.5763 96.5208 73.4767 89.0779C79.0696 88.3095 82.1876 83.7193 83.0475 81.5203C82.7484 69.3191 75.5337 74.2474 71.9638 78.2367Z" fill="url(#paint2_linear)"/>
<path d="M77.6984 37.8934L77.4342 50.3598L9.49958 48.9202C5.55851 37.5287 9.70242 33.8657 12.267 33.4581C12.1151 27.4683 16.0098 26.7933 17.9762 27.2045C16.1332 22.0657 20.7978 20.1506 23.3604 19.8354C23.4872 13.8515 29.0813 13.0277 31.8625 13.3638C31.4178 8.03294 35.9439 7.16806 38.2625 7.40197C42.5465 2.61481 46.5507 5.54513 48.0173 7.60869C55.2777 7.09737 55.6014 11.5572 54.8558 13.851C61.5776 12.4414 62.6722 17.8045 62.3793 20.6622C67.4054 20.3253 68.3162 25.5921 68.1433 28.2676C73.4058 29.9312 73.2653 33.2726 72.5372 34.7353L77.6984 37.8934Z" fill="#009EE8"/>
<path d="M77.6984 37.8934L77.4342 50.3598L9.49958 48.9202C5.55851 37.5287 9.70242 33.8657 12.267 33.4581C12.1151 27.4683 16.0098 26.7933 17.9762 27.2045C16.1332 22.0657 20.7978 20.1506 23.3604 19.8354C23.4872 13.8515 29.0813 13.0277 31.8625 13.3638C31.4178 8.03294 35.9439 7.16806 38.2625 7.40197C42.5465 2.61481 46.5507 5.54513 48.0173 7.60869C55.2777 7.09737 55.6014 11.5572 54.8558 13.851C61.5776 12.4414 62.6722 17.8045 62.3793 20.6622C67.4054 20.3253 68.3162 25.5921 68.1433 28.2676C73.4058 29.9312 73.2653 33.2726 72.5372 34.7353L77.6984 37.8934Z" fill="url(#paint3_linear)"/>
<path d="M75.1857 205.797C78.5537 204.76 71.8552 187.527 68.0849 179.04L55.1105 166.293L60.5536 205.487C59.9573 206.214 59.9587 207.248 64.7342 205.576C70.7037 203.485 70.9758 207.094 75.1857 205.797Z" fill="#009EE8"/>
<path d="M75.1857 205.797C78.5537 204.76 71.8552 187.527 68.0849 179.04L55.1105 166.293L60.5536 205.487C59.9573 206.214 59.9587 207.248 64.7342 205.576C70.7037 203.485 70.9758 207.094 75.1857 205.797Z" fill="url(#paint4_linear)"/>
<path d="M76.7395 66.6973L77.1035 49.5213C46.8591 29.3686 19.9087 40.1794 10.214 48.1038L9.89696 63.0636C33.4914 54.9163 64.2897 62.0914 76.7395 66.6973Z" fill="#009EE8"/>
<path d="M76.7395 66.6973L77.1035 49.5213C46.8591 29.3686 19.9087 40.1794 10.214 48.1038L9.89696 63.0636C33.4914 54.9163 64.2897 62.0914 76.7395 66.6973Z" fill="url(#paint5_linear)"/>
<path d="M82.6761 181.289L70.0138 168.271C66.0089 168.186 68.5917 156.6 70.3837 150.818L59.9544 150.597L56.905 156.63L17.6909 155.799L17.4502 167.157C18.0284 171.382 43.7947 171.318 56.6056 170.758L69.6733 184.339L82.6761 181.289Z" fill="#009EE8"/>
<path d="M57.0521 107.577L73.3185 113C73.1666 120.166 51.2549 145.393 40.3181 157.11C37.8249 156.34 20.3773 127.711 11.9651 113.492L27.4395 106.949C28.0732 116.522 36.7153 124.273 40.9572 126.952C44.0179 127.256 52.9624 114.162 57.0521 107.577Z" fill="#009EE8"/>
</g>
<defs>
<filter id="filter0_d" x="2.56545" y="0.0810547" width="93.4756" height="236.462" filterUnits="userSpaceOnUse" color-interpolation-filters="sRGB">
<feFlood flood-opacity="0" result="BackgroundImageFix"/>
<feColorMatrix in="SourceAlpha" type="matrix" values="0 0 0 0 0 0 0 0 0 0 0 0 0 0 0 0 0 0 127 0"/>
<feOffset dx="5"/>
<feGaussianBlur stdDeviation="2"/>
<feColorMatrix type="matrix" values="0 0 0 0 0 0 0 0 0 0 0 0 0 0 0 0 0 0 0.25 0"/>
<feBlend mode="normal" in2="BackgroundImageFix" result="effect1_dropShadow"/>
<feBlend mode="normal" in="SourceGraphic" in2="effect1_dropShadow" result="shape"/>
</filter>
<linearGradient id="paint0_linear" x1="45.5009" y1="167.475" x2="44.133" y2="232.023" gradientUnits="userSpaceOnUse">
<stop stop-color="#51C8FF"/>
<stop offset="1" stop-color="#C3ECFF"/>
</linearGradient>
<linearGradient id="paint1_linear" x1="47.1512" y1="106.037" x2="45.0976" y2="202.942" gradientUnits="userSpaceOnUse">
<stop stop-color="#51C8FF"/>
<stop offset="1" stop-color="#C3ECFF"/>
</linearGradient>
<linearGradient id="paint2_linear" x1="43.6177" y1="57.4907" x2="42.4865" y2="110.871" gradientUnits="userSpaceOnUse">
<stop stop-color="#51C8FF"/>
<stop offset="1" stop-color="#C3ECFF"/>
</linearGradient>
<linearGradient id="paint3_linear" x1="43.5155" y1="4.81993" x2="42.5661" y2="49.6209" gradientUnits="userSpaceOnUse">
<stop stop-color="#51C8FF"/>
<stop offset="1" stop-color="#C3ECFF"/>
</linearGradient>
<linearGradient id="paint4_linear" x1="65.9988" y1="166.523" x2="65.1503" y2="206.564" gradientUnits="userSpaceOnUse">
<stop stop-color="#51C8FF"/>
<stop offset="1" stop-color="#C3ECFF"/>
</linearGradient>
<linearGradient id="paint5_linear" x1="43.8869" y1="38.0439" x2="43.2947" y2="65.9886" gradientUnits="userSpaceOnUse">
<stop stop-color="#51C8FF"/>
<stop offset="1" stop-color="#C3ECFF"/>
</linearGradient>
</defs>
</svg>
