<svg width="29" height="33" viewBox="0 0 29 33" fill="none" xmlns="http://www.w3.org/2000/svg">
<path fill-rule="evenodd" clip-rule="evenodd" d="M16.4308 19.8821C20.6188 17.4642 22.0537 12.1091 19.6358 7.92115C17.2178 3.73319 11.8627 2.29829 7.67476 4.71621C3.48681 7.13413 2.05191 12.4892 4.46982 16.6772C6.88774 20.8652 12.2429 22.3001 16.4308 19.8821ZM14.9715 17.3544C17.7635 15.7424 18.7201 12.1723 17.1081 9.38038C15.4962 6.58841 11.9261 5.63181 9.13411 7.24375C6.34214 8.8557 5.38554 12.4258 6.99749 15.2177C8.60943 18.0097 12.1795 18.9663 14.9715 17.3544Z" fill="#ECECFF"/>
<rect x="13.5331" y="19.533" width="4.08616" height="11.6747" transform="rotate(-30 13.5331 19.533)" fill="#ECECFF"/>
</svg>
